<?xml version="1.0" encoding="utf-8" standalone="no"?>
<!DOCTYPE svg PUBLIC "-//W3C//DTD SVG 1.1//EN"
  "http://www.w3.org/Graphics/SVG/1.1/DTD/svg11.dtd">
<svg xmlns:xlink="http://www.w3.org/1999/xlink" width="864pt" height="216pt" viewBox="0 0 864 216" xmlns="http://www.w3.org/2000/svg" version="1.1">
 <metadata>
  <rdf:RDF xmlns:dc="http://purl.org/dc/elements/1.1/" xmlns:cc="http://creativecommons.org/ns#" xmlns:rdf="http://www.w3.org/1999/02/22-rdf-syntax-ns#">
   <cc:Work>
    <dc:type rdf:resource="http://purl.org/dc/dcmitype/StillImage"/>
    <dc:date>2024-12-09T09:58:41.557026</dc:date>
    <dc:format>image/svg+xml</dc:format>
    <dc:creator>
     <cc:Agent>
      <dc:title>Matplotlib v3.9.2, https://matplotlib.org/</dc:title>
     </cc:Agent>
    </dc:creator>
   </cc:Work>
  </rdf:RDF>
 </metadata>
 <defs>
  <style type="text/css">*{stroke-linejoin: round; stroke-linecap: butt}</style>
 </defs>
 <g id="figure_1">
  <g id="patch_1">
   <path d="M 0 216 
L 864 216 
L 864 0 
L 0 0 
L 0 216 
z
" style="fill: none"/>
  </g>
  <g id="axes_1">
   <g id="patch_2">
    <path d="M 108 192.24 
L 777.6 192.24 
L 777.6 25.92 
L 108 25.92 
L 108 192.24 
z
" style="fill: none"/>
   </g>
   <g id="matplotlib.axis_1">
    <g id="xtick_1">
     <g id="line2d_1">
      <defs>
       <path id="mf56e0c8071" d="M 0 0 
L 0 3.5 
" style="stroke: #000000; stroke-width: 0.8"/>
      </defs>
      <g>
       <use xlink:href="#mf56e0c8071" x="138.436364" y="192.24" style="stroke: #000000; stroke-width: 0.8"/>
      </g>
     </g>
     <g id="text_1">
      <!-- 0.0 -->
      <g transform="translate(130.484801 206.838437) scale(0.1 -0.1)">
       <defs>
        <path id="DejaVuSans-30" d="M 2034 4250 
Q 1547 4250 1301 3770 
Q 1056 3291 1056 2328 
Q 1056 1369 1301 889 
Q 1547 409 2034 409 
Q 2525 409 2770 889 
Q 3016 1369 3016 2328 
Q 3016 3291 2770 3770 
Q 2525 4250 2034 4250 
z
M 2034 4750 
Q 2819 4750 3233 4129 
Q 3647 3509 3647 2328 
Q 3647 1150 3233 529 
Q 2819 -91 2034 -91 
Q 1250 -91 836 529 
Q 422 1150 422 2328 
Q 422 3509 836 4129 
Q 1250 4750 2034 4750 
z
" transform="scale(0.015625)"/>
        <path id="DejaVuSans-2e" d="M 684 794 
L 1344 794 
L 1344 0 
L 684 0 
L 684 794 
z
" transform="scale(0.015625)"/>
       </defs>
       <use xlink:href="#DejaVuSans-30"/>
       <use xlink:href="#DejaVuSans-2e" x="63.623047"/>
       <use xlink:href="#DejaVuSans-30" x="95.410156"/>
      </g>
     </g>
    </g>
    <g id="xtick_2">
     <g id="line2d_2">
      <g>
       <use xlink:href="#mf56e0c8071" x="260.181818" y="192.24" style="stroke: #000000; stroke-width: 0.8"/>
      </g>
     </g>
     <g id="text_2">
      <!-- 0.2 -->
      <g transform="translate(252.230256 206.838437) scale(0.1 -0.1)">
       <defs>
        <path id="DejaVuSans-32" d="M 1228 531 
L 3431 531 
L 3431 0 
L 469 0 
L 469 531 
Q 828 903 1448 1529 
Q 2069 2156 2228 2338 
Q 2531 2678 2651 2914 
Q 2772 3150 2772 3378 
Q 2772 3750 2511 3984 
Q 2250 4219 1831 4219 
Q 1534 4219 1204 4116 
Q 875 4013 500 3803 
L 500 4441 
Q 881 4594 1212 4672 
Q 1544 4750 1819 4750 
Q 2544 4750 2975 4387 
Q 3406 4025 3406 3419 
Q 3406 3131 3298 2873 
Q 3191 2616 2906 2266 
Q 2828 2175 2409 1742 
Q 1991 1309 1228 531 
z
" transform="scale(0.015625)"/>
       </defs>
       <use xlink:href="#DejaVuSans-30"/>
       <use xlink:href="#DejaVuSans-2e" x="63.623047"/>
       <use xlink:href="#DejaVuSans-32" x="95.410156"/>
      </g>
     </g>
    </g>
    <g id="xtick_3">
     <g id="line2d_3">
      <g>
       <use xlink:href="#mf56e0c8071" x="381.927273" y="192.24" style="stroke: #000000; stroke-width: 0.8"/>
      </g>
     </g>
     <g id="text_3">
      <!-- 0.4 -->
      <g transform="translate(373.97571 206.838437) scale(0.1 -0.1)">
       <defs>
        <path id="DejaVuSans-34" d="M 2419 4116 
L 825 1625 
L 2419 1625 
L 2419 4116 
z
M 2253 4666 
L 3047 4666 
L 3047 1625 
L 3713 1625 
L 3713 1100 
L 3047 1100 
L 3047 0 
L 2419 0 
L 2419 1100 
L 313 1100 
L 313 1709 
L 2253 4666 
z
" transform="scale(0.015625)"/>
       </defs>
       <use xlink:href="#DejaVuSans-30"/>
       <use xlink:href="#DejaVuSans-2e" x="63.623047"/>
       <use xlink:href="#DejaVuSans-34" x="95.410156"/>
      </g>
     </g>
    </g>
    <g id="xtick_4">
     <g id="line2d_4">
      <g>
       <use xlink:href="#mf56e0c8071" x="503.672727" y="192.24" style="stroke: #000000; stroke-width: 0.8"/>
      </g>
     </g>
     <g id="text_4">
      <!-- 0.6 -->
      <g transform="translate(495.721165 206.838437) scale(0.1 -0.1)">
       <defs>
        <path id="DejaVuSans-36" d="M 2113 2584 
Q 1688 2584 1439 2293 
Q 1191 2003 1191 1497 
Q 1191 994 1439 701 
Q 1688 409 2113 409 
Q 2538 409 2786 701 
Q 3034 994 3034 1497 
Q 3034 2003 2786 2293 
Q 2538 2584 2113 2584 
z
M 3366 4563 
L 3366 3988 
Q 3128 4100 2886 4159 
Q 2644 4219 2406 4219 
Q 1781 4219 1451 3797 
Q 1122 3375 1075 2522 
Q 1259 2794 1537 2939 
Q 1816 3084 2150 3084 
Q 2853 3084 3261 2657 
Q 3669 2231 3669 1497 
Q 3669 778 3244 343 
Q 2819 -91 2113 -91 
Q 1303 -91 875 529 
Q 447 1150 447 2328 
Q 447 3434 972 4092 
Q 1497 4750 2381 4750 
Q 2619 4750 2861 4703 
Q 3103 4656 3366 4563 
z
" transform="scale(0.015625)"/>
       </defs>
       <use xlink:href="#DejaVuSans-30"/>
       <use xlink:href="#DejaVuSans-2e" x="63.623047"/>
       <use xlink:href="#DejaVuSans-36" x="95.410156"/>
      </g>
     </g>
    </g>
    <g id="xtick_5">
     <g id="line2d_5">
      <g>
       <use xlink:href="#mf56e0c8071" x="625.418182" y="192.24" style="stroke: #000000; stroke-width: 0.8"/>
      </g>
     </g>
     <g id="text_5">
      <!-- 0.8 -->
      <g transform="translate(617.466619 206.838437) scale(0.1 -0.1)">
       <defs>
        <path id="DejaVuSans-38" d="M 2034 2216 
Q 1584 2216 1326 1975 
Q 1069 1734 1069 1313 
Q 1069 891 1326 650 
Q 1584 409 2034 409 
Q 2484 409 2743 651 
Q 3003 894 3003 1313 
Q 3003 1734 2745 1975 
Q 2488 2216 2034 2216 
z
M 1403 2484 
Q 997 2584 770 2862 
Q 544 3141 544 3541 
Q 544 4100 942 4425 
Q 1341 4750 2034 4750 
Q 2731 4750 3128 4425 
Q 3525 4100 3525 3541 
Q 3525 3141 3298 2862 
Q 3072 2584 2669 2484 
Q 3125 2378 3379 2068 
Q 3634 1759 3634 1313 
Q 3634 634 3220 271 
Q 2806 -91 2034 -91 
Q 1263 -91 848 271 
Q 434 634 434 1313 
Q 434 1759 690 2068 
Q 947 2378 1403 2484 
z
M 1172 3481 
Q 1172 3119 1398 2916 
Q 1625 2713 2034 2713 
Q 2441 2713 2670 2916 
Q 2900 3119 2900 3481 
Q 2900 3844 2670 4047 
Q 2441 4250 2034 4250 
Q 1625 4250 1398 4047 
Q 1172 3844 1172 3481 
z
" transform="scale(0.015625)"/>
       </defs>
       <use xlink:href="#DejaVuSans-30"/>
       <use xlink:href="#DejaVuSans-2e" x="63.623047"/>
       <use xlink:href="#DejaVuSans-38" x="95.410156"/>
      </g>
     </g>
    </g>
    <g id="xtick_6">
     <g id="line2d_6">
      <g>
       <use xlink:href="#mf56e0c8071" x="747.163636" y="192.24" style="stroke: #000000; stroke-width: 0.8"/>
      </g>
     </g>
     <g id="text_6">
      <!-- 1.0 -->
      <g transform="translate(739.212074 206.838437) scale(0.1 -0.1)">
       <defs>
        <path id="DejaVuSans-31" d="M 794 531 
L 1825 531 
L 1825 4091 
L 703 3866 
L 703 4441 
L 1819 4666 
L 2450 4666 
L 2450 531 
L 3481 531 
L 3481 0 
L 794 0 
L 794 531 
z
" transform="scale(0.015625)"/>
       </defs>
       <use xlink:href="#DejaVuSans-31"/>
       <use xlink:href="#DejaVuSans-2e" x="63.623047"/>
       <use xlink:href="#DejaVuSans-30" x="95.410156"/>
      </g>
     </g>
    </g>
   </g>
   <g id="matplotlib.axis_2">
    <g id="ytick_1">
     <g id="line2d_7">
      <defs>
       <path id="m16c6a884e4" d="M 0 0 
L -3.5 0 
" style="stroke: #000000; stroke-width: 0.8"/>
      </defs>
      <g>
       <use xlink:href="#m16c6a884e4" x="108" y="184.68" style="stroke: #000000; stroke-width: 0.8"/>
      </g>
     </g>
     <g id="text_7">
      <!-- 0 -->
      <g transform="translate(94.6375 188.479219) scale(0.1 -0.1)">
       <use xlink:href="#DejaVuSans-30"/>
      </g>
     </g>
    </g>
    <g id="ytick_2">
     <g id="line2d_8">
      <g>
       <use xlink:href="#m16c6a884e4" x="108" y="143.926462" style="stroke: #000000; stroke-width: 0.8"/>
      </g>
     </g>
     <g id="text_8">
      <!-- 2 -->
      <g transform="translate(94.6375 147.725681) scale(0.1 -0.1)">
       <use xlink:href="#DejaVuSans-32"/>
      </g>
     </g>
    </g>
    <g id="ytick_3">
     <g id="line2d_9">
      <g>
       <use xlink:href="#m16c6a884e4" x="108" y="103.172925" style="stroke: #000000; stroke-width: 0.8"/>
      </g>
     </g>
     <g id="text_9">
      <!-- 4 -->
      <g transform="translate(94.6375 106.972144) scale(0.1 -0.1)">
       <use xlink:href="#DejaVuSans-34"/>
      </g>
     </g>
    </g>
    <g id="ytick_4">
     <g id="line2d_10">
      <g>
       <use xlink:href="#m16c6a884e4" x="108" y="62.419387" style="stroke: #000000; stroke-width: 0.8"/>
      </g>
     </g>
     <g id="text_10">
      <!-- 6 -->
      <g transform="translate(94.6375 66.218606) scale(0.1 -0.1)">
       <use xlink:href="#DejaVuSans-36"/>
      </g>
     </g>
    </g>
   </g>
   <g id="line2d_11">
    <path d="M 138.436364 151.018737 
L 145.139066 158.057128 
L 150.013759 163.014788 
L 153.669779 166.395845 
L 156.716462 168.900868 
L 157.325799 169.363169 
L 157.935135 169.588588 
L 160.981818 167.179169 
L 164.028501 164.466841 
L 167.684521 160.892505 
L 172.559214 155.804754 
L 173.16855 156.169618 
L 174.387224 158.449869 
L 178.043243 162.216854 
L 181.699263 165.742772 
L 184.745946 168.418301 
L 187.792629 170.799493 
L 189.011302 171.661563 
L 189.620639 171.847174 
L 192.667322 169.62321 
L 195.714005 167.086524 
L 199.370025 163.690377 
L 203.635381 159.382357 
L 213.384767 149.395524 
L 216.43145 146.622618 
L 217.040786 146.104416 
L 217.650123 145.280803 
L 223.134152 136.300927 
L 226.790172 130.745923 
L 229.836855 126.538453 
L 230.446192 126.325204 
L 232.274201 126.517723 
L 234.102211 126.892049 
L 235.930221 127.451569 
L 237.758231 128.196033 
L 240.195577 129.468636 
L 242.632924 131.041423 
L 245.07027 132.881206 
L 248.116953 135.48743 
L 252.38231 139.509142 
L 257.866339 144.743991 
L 263.959705 138.861459 
L 267.006388 135.8221 
L 271.881081 122.440324 
L 277.974447 105.78183 
L 281.02113 98.068744 
L 282.84914 97.18756 
L 285.286486 96.244532 
L 287.723833 95.539679 
L 290.161179 95.053672 
L 291.989189 94.815631 
L 292.598526 93.509711 
L 296.254545 79.53544 
L 298.691892 71.046011 
L 300.519902 65.320746 
L 302.347912 60.274117 
L 304.175921 56.010468 
L 305.394595 53.648244 
L 306.613268 51.697043 
L 307.831941 50.175705 
L 309.050614 49.099031 
L 310.269287 48.477554 
L 310.878624 48.339597 
L 311.487961 48.317375 
L 312.097297 48.410942 
L 313.315971 48.94424 
L 314.534644 49.934253 
L 315.753317 51.371287 
L 316.97199 53.241346 
L 318.190663 55.526343 
L 319.409337 58.204385 
L 321.237346 62.902046 
L 323.065356 68.328019 
L 325.502703 76.503165 
L 327.940049 85.49111 
L 328.549386 85.61876 
L 330.986732 84.799753 
L 332.205405 84.462532 
L 332.814742 86.697223 
L 341.345455 123.892419 
L 343.782801 133.478189 
L 346.220147 142.226031 
L 348.657494 150.031105 
L 350.485504 155.23582 
L 352.313514 159.881537 
L 354.141523 163.980765 
L 355.969533 167.557113 
L 357.797543 170.642758 
L 359.625553 173.275992 
L 361.453563 175.498933 
L 363.281572 177.355505 
L 365.109582 178.889713 
L 366.937592 180.144244 
L 368.765602 181.159408 
L 371.202948 182.204351 
L 373.640295 182.967472 
L 376.077641 183.5147 
L 377.905651 183.801051 
L 382.780344 183.309028 
L 386.436364 182.741213 
L 387.655037 182.551061 
L 390.092383 183.180891 
L 393.139066 183.734596 
L 396.795086 184.154145 
L 401.060442 184.410223 
L 409.591155 184.587532 
L 428.48059 184.678526 
L 747.163636 184.68 
L 747.163636 184.68 
" clip-path="url(#p9314036f7f)" style="fill: none; stroke: #ff0000; stroke-linecap: square"/>
   </g>
   <g id="line2d_12">
    <path d="M 138.436364 168.132134 
L 142.092383 169.762022 
L 145.748403 171.167639 
L 150.013759 172.55044 
L 154.279115 173.686471 
L 158.544472 174.605672 
L 163.419165 175.425044 
L 168.293857 176.030369 
L 173.777887 176.489059 
L 179.871253 176.75499 
L 185.964619 176.786485 
L 192.057985 176.591504 
L 198.151351 176.163158 
L 203.635381 175.56026 
L 209.11941 174.723486 
L 213.994103 173.752075 
L 218.259459 172.697085 
L 222.524816 171.419382 
L 226.180835 170.119652 
L 229.836855 168.603086 
L 233.492875 166.839189 
L 237.148894 164.793535 
L 240.195577 162.846045 
L 243.24226 160.652167 
L 246.288943 158.186147 
L 249.335627 155.420979 
L 252.38231 152.32889 
L 255.428993 148.882047 
L 258.475676 145.053487 
L 261.522359 140.818341 
L 264.569042 136.15536 
L 267.615725 131.04878 
L 270.662408 125.49052 
L 273.709091 119.482709 
L 277.365111 111.702309 
L 281.02113 103.354194 
L 285.286486 93.029738 
L 292.598526 74.576249 
L 297.473219 62.525084 
L 300.519902 55.474287 
L 302.957248 50.267139 
L 305.394595 45.566309 
L 307.222604 42.44131 
L 309.050614 39.71242 
L 310.878624 37.425509 
L 312.097297 36.167988 
L 313.315971 35.138251 
L 314.534644 34.347467 
L 315.753317 33.805824 
L 316.97199 33.522391 
L 318.190663 33.504991 
L 319.409337 33.76007 
L 320.62801 34.292588 
L 321.846683 35.105904 
L 323.065356 36.201692 
L 324.284029 37.579862 
L 325.502703 39.238498 
L 326.721376 41.173821 
L 328.549386 44.58269 
L 330.377396 48.573892 
L 332.205405 53.111125 
L 334.642752 59.931068 
L 337.080098 67.512119 
L 340.126781 77.829605 
L 344.392138 93.258099 
L 351.704177 119.91846 
L 354.75086 130.268046 
L 357.797543 139.81319 
L 360.234889 146.758534 
L 362.672236 153.030861 
L 365.109582 158.603995 
L 366.937592 162.323181 
L 368.765602 165.65511 
L 370.593612 168.613065 
L 372.421622 171.215217 
L 374.249631 173.483585 
L 376.077641 175.442999 
L 377.905651 177.120108 
L 379.733661 178.54246 
L 381.561671 179.737691 
L 383.999017 181.024583 
L 386.436364 182.016215 
L 388.87371 182.767777 
L 391.920393 183.443191 
L 395.576413 183.969729 
L 399.841769 184.32428 
L 405.325799 184.543857 
L 414.465848 184.657093 
L 444.323342 184.679987 
L 747.163636 184.68 
L 747.163636 184.68 
" clip-path="url(#p9314036f7f)" style="fill: none; stroke: #0000ff; stroke-linecap: square"/>
   </g>
   <g id="line2d_13">
    <path d="M 138.436364 137.371389 
L 141.483047 141.557551 
L 144.52973 145.29158 
L 147.576413 148.602893 
L 150.623096 151.523789 
L 153.669779 154.087395 
L 156.716462 156.326191 
L 159.763145 158.271007 
L 162.809828 159.950382 
L 165.856511 161.390205 
L 168.903194 162.613538 
L 172.559214 163.82403 
L 176.215233 164.781357 
L 179.871253 165.50963 
L 183.527273 166.027789 
L 187.792629 166.385347 
L 192.057985 166.490731 
L 196.323342 166.350982 
L 200.588698 165.965865 
L 204.854054 165.328167 
L 208.510074 164.570099 
L 212.166093 163.603548 
L 215.822113 162.412228 
L 219.478133 160.976371 
L 223.134152 159.272874 
L 226.180835 157.630047 
L 229.227518 155.766661 
L 232.274201 153.665137 
L 235.320885 151.307253 
L 238.367568 148.674646 
L 241.414251 145.749463 
L 244.460934 142.515182 
L 247.507617 138.957643 
L 250.5543 135.066274 
L 253.600983 130.83554 
L 256.647666 126.266586 
L 260.303686 120.351683 
L 263.959705 114.001038 
L 268.225061 106.127365 
L 274.318428 94.321461 
L 281.630467 80.199511 
L 285.286486 73.636478 
L 288.33317 68.661285 
L 290.770516 65.115998 
L 292.598526 62.763586 
L 294.426536 60.71118 
L 296.254545 58.991124 
L 298.082555 57.633992 
L 299.301229 56.94488 
L 300.519902 56.437242 
L 301.738575 56.117978 
L 302.957248 55.993207 
L 304.175921 56.068181 
L 305.394595 56.347208 
L 306.613268 56.833584 
L 307.831941 57.529526 
L 309.050614 58.436117 
L 310.269287 59.553261 
L 312.097297 61.620551 
L 313.925307 64.148661 
L 315.753317 67.121576 
L 317.581327 70.517026 
L 319.409337 74.30672 
L 321.846683 79.913545 
L 324.284029 86.066206 
L 327.330713 94.360314 
L 331.596069 106.683773 
L 339.517445 129.722788 
L 343.173464 139.574625 
L 346.220147 147.110237 
L 348.657494 152.61589 
L 351.09484 157.616989 
L 353.532187 162.095342 
L 355.969533 166.048931 
L 358.40688 169.490012 
L 360.844226 172.442767 
L 362.672236 174.356743 
L 365.109582 176.539607 
L 367.546929 178.340626 
L 369.984275 179.805399 
L 372.421622 180.97963 
L 374.858968 181.907391 
L 377.905651 182.782778 
L 380.952334 183.408704 
L 384.608354 183.915456 
L 388.87371 184.273877 
L 394.967076 184.527374 
L 404.107125 184.650308 
L 430.3086 184.679915 
L 747.163636 184.68 
L 747.163636 184.68 
" clip-path="url(#p9314036f7f)" style="fill: none; stroke: #000000; stroke-linecap: square"/>
   </g>
   <g id="patch_3">
    <path d="M 108 192.24 
L 108 25.92 
" style="fill: none; stroke: #000000; stroke-width: 0.8; stroke-linejoin: miter; stroke-linecap: square"/>
   </g>
   <g id="patch_4">
    <path d="M 777.6 192.24 
L 777.6 25.92 
" style="fill: none; stroke: #000000; stroke-width: 0.8; stroke-linejoin: miter; stroke-linecap: square"/>
   </g>
   <g id="patch_5">
    <path d="M 108 192.24 
L 777.6 192.24 
" style="fill: none; stroke: #000000; stroke-width: 0.8; stroke-linejoin: miter; stroke-linecap: square"/>
   </g>
   <g id="patch_6">
    <path d="M 108 25.92 
L 777.6 25.92 
" style="fill: none; stroke: #000000; stroke-width: 0.8; stroke-linejoin: miter; stroke-linecap: square"/>
   </g>
   <g id="legend_1">
    <g id="patch_7">
     <path d="M 647.55625 77.954375 
L 770.6 77.954375 
Q 772.6 77.954375 772.6 75.954375 
L 772.6 32.92 
Q 772.6 30.92 770.6 30.92 
L 647.55625 30.92 
Q 645.55625 30.92 645.55625 32.92 
L 645.55625 75.954375 
Q 645.55625 77.954375 647.55625 77.954375 
z
" style="fill: #ffffff; opacity: 0.8; stroke: #cccccc; stroke-linejoin: miter"/>
    </g>
    <g id="line2d_14">
     <path d="M 649.55625 39.018438 
L 659.55625 39.018438 
L 669.55625 39.018438 
" style="fill: none; stroke: #ff0000; stroke-linecap: square"/>
    </g>
    <g id="text_11">
     <!-- Lipschitz marginal -->
     <g transform="translate(677.55625 42.518438) scale(0.1 -0.1)">
      <defs>
       <path id="DejaVuSans-4c" d="M 628 4666 
L 1259 4666 
L 1259 531 
L 3531 531 
L 3531 0 
L 628 0 
L 628 4666 
z
" transform="scale(0.015625)"/>
       <path id="DejaVuSans-69" d="M 603 3500 
L 1178 3500 
L 1178 0 
L 603 0 
L 603 3500 
z
M 603 4863 
L 1178 4863 
L 1178 4134 
L 603 4134 
L 603 4863 
z
" transform="scale(0.015625)"/>
       <path id="DejaVuSans-70" d="M 1159 525 
L 1159 -1331 
L 581 -1331 
L 581 3500 
L 1159 3500 
L 1159 2969 
Q 1341 3281 1617 3432 
Q 1894 3584 2278 3584 
Q 2916 3584 3314 3078 
Q 3713 2572 3713 1747 
Q 3713 922 3314 415 
Q 2916 -91 2278 -91 
Q 1894 -91 1617 61 
Q 1341 213 1159 525 
z
M 3116 1747 
Q 3116 2381 2855 2742 
Q 2594 3103 2138 3103 
Q 1681 3103 1420 2742 
Q 1159 2381 1159 1747 
Q 1159 1113 1420 752 
Q 1681 391 2138 391 
Q 2594 391 2855 752 
Q 3116 1113 3116 1747 
z
" transform="scale(0.015625)"/>
       <path id="DejaVuSans-73" d="M 2834 3397 
L 2834 2853 
Q 2591 2978 2328 3040 
Q 2066 3103 1784 3103 
Q 1356 3103 1142 2972 
Q 928 2841 928 2578 
Q 928 2378 1081 2264 
Q 1234 2150 1697 2047 
L 1894 2003 
Q 2506 1872 2764 1633 
Q 3022 1394 3022 966 
Q 3022 478 2636 193 
Q 2250 -91 1575 -91 
Q 1294 -91 989 -36 
Q 684 19 347 128 
L 347 722 
Q 666 556 975 473 
Q 1284 391 1588 391 
Q 1994 391 2212 530 
Q 2431 669 2431 922 
Q 2431 1156 2273 1281 
Q 2116 1406 1581 1522 
L 1381 1569 
Q 847 1681 609 1914 
Q 372 2147 372 2553 
Q 372 3047 722 3315 
Q 1072 3584 1716 3584 
Q 2034 3584 2315 3537 
Q 2597 3491 2834 3397 
z
" transform="scale(0.015625)"/>
       <path id="DejaVuSans-63" d="M 3122 3366 
L 3122 2828 
Q 2878 2963 2633 3030 
Q 2388 3097 2138 3097 
Q 1578 3097 1268 2742 
Q 959 2388 959 1747 
Q 959 1106 1268 751 
Q 1578 397 2138 397 
Q 2388 397 2633 464 
Q 2878 531 3122 666 
L 3122 134 
Q 2881 22 2623 -34 
Q 2366 -91 2075 -91 
Q 1284 -91 818 406 
Q 353 903 353 1747 
Q 353 2603 823 3093 
Q 1294 3584 2113 3584 
Q 2378 3584 2631 3529 
Q 2884 3475 3122 3366 
z
" transform="scale(0.015625)"/>
       <path id="DejaVuSans-68" d="M 3513 2113 
L 3513 0 
L 2938 0 
L 2938 2094 
Q 2938 2591 2744 2837 
Q 2550 3084 2163 3084 
Q 1697 3084 1428 2787 
Q 1159 2491 1159 1978 
L 1159 0 
L 581 0 
L 581 4863 
L 1159 4863 
L 1159 2956 
Q 1366 3272 1645 3428 
Q 1925 3584 2291 3584 
Q 2894 3584 3203 3211 
Q 3513 2838 3513 2113 
z
" transform="scale(0.015625)"/>
       <path id="DejaVuSans-74" d="M 1172 4494 
L 1172 3500 
L 2356 3500 
L 2356 3053 
L 1172 3053 
L 1172 1153 
Q 1172 725 1289 603 
Q 1406 481 1766 481 
L 2356 481 
L 2356 0 
L 1766 0 
Q 1100 0 847 248 
Q 594 497 594 1153 
L 594 3053 
L 172 3053 
L 172 3500 
L 594 3500 
L 594 4494 
L 1172 4494 
z
" transform="scale(0.015625)"/>
       <path id="DejaVuSans-7a" d="M 353 3500 
L 3084 3500 
L 3084 2975 
L 922 459 
L 3084 459 
L 3084 0 
L 275 0 
L 275 525 
L 2438 3041 
L 353 3041 
L 353 3500 
z
" transform="scale(0.015625)"/>
       <path id="DejaVuSans-20" transform="scale(0.015625)"/>
       <path id="DejaVuSans-6d" d="M 3328 2828 
Q 3544 3216 3844 3400 
Q 4144 3584 4550 3584 
Q 5097 3584 5394 3201 
Q 5691 2819 5691 2113 
L 5691 0 
L 5113 0 
L 5113 2094 
Q 5113 2597 4934 2840 
Q 4756 3084 4391 3084 
Q 3944 3084 3684 2787 
Q 3425 2491 3425 1978 
L 3425 0 
L 2847 0 
L 2847 2094 
Q 2847 2600 2669 2842 
Q 2491 3084 2119 3084 
Q 1678 3084 1418 2786 
Q 1159 2488 1159 1978 
L 1159 0 
L 581 0 
L 581 3500 
L 1159 3500 
L 1159 2956 
Q 1356 3278 1631 3431 
Q 1906 3584 2284 3584 
Q 2666 3584 2933 3390 
Q 3200 3197 3328 2828 
z
" transform="scale(0.015625)"/>
       <path id="DejaVuSans-61" d="M 2194 1759 
Q 1497 1759 1228 1600 
Q 959 1441 959 1056 
Q 959 750 1161 570 
Q 1363 391 1709 391 
Q 2188 391 2477 730 
Q 2766 1069 2766 1631 
L 2766 1759 
L 2194 1759 
z
M 3341 1997 
L 3341 0 
L 2766 0 
L 2766 531 
Q 2569 213 2275 61 
Q 1981 -91 1556 -91 
Q 1019 -91 701 211 
Q 384 513 384 1019 
Q 384 1609 779 1909 
Q 1175 2209 1959 2209 
L 2766 2209 
L 2766 2266 
Q 2766 2663 2505 2880 
Q 2244 3097 1772 3097 
Q 1472 3097 1187 3025 
Q 903 2953 641 2809 
L 641 3341 
Q 956 3463 1253 3523 
Q 1550 3584 1831 3584 
Q 2591 3584 2966 3190 
Q 3341 2797 3341 1997 
z
" transform="scale(0.015625)"/>
       <path id="DejaVuSans-72" d="M 2631 2963 
Q 2534 3019 2420 3045 
Q 2306 3072 2169 3072 
Q 1681 3072 1420 2755 
Q 1159 2438 1159 1844 
L 1159 0 
L 581 0 
L 581 3500 
L 1159 3500 
L 1159 2956 
Q 1341 3275 1631 3429 
Q 1922 3584 2338 3584 
Q 2397 3584 2469 3576 
Q 2541 3569 2628 3553 
L 2631 2963 
z
" transform="scale(0.015625)"/>
       <path id="DejaVuSans-67" d="M 2906 1791 
Q 2906 2416 2648 2759 
Q 2391 3103 1925 3103 
Q 1463 3103 1205 2759 
Q 947 2416 947 1791 
Q 947 1169 1205 825 
Q 1463 481 1925 481 
Q 2391 481 2648 825 
Q 2906 1169 2906 1791 
z
M 3481 434 
Q 3481 -459 3084 -895 
Q 2688 -1331 1869 -1331 
Q 1566 -1331 1297 -1286 
Q 1028 -1241 775 -1147 
L 775 -588 
Q 1028 -725 1275 -790 
Q 1522 -856 1778 -856 
Q 2344 -856 2625 -561 
Q 2906 -266 2906 331 
L 2906 616 
Q 2728 306 2450 153 
Q 2172 0 1784 0 
Q 1141 0 747 490 
Q 353 981 353 1791 
Q 353 2603 747 3093 
Q 1141 3584 1784 3584 
Q 2172 3584 2450 3431 
Q 2728 3278 2906 2969 
L 2906 3500 
L 3481 3500 
L 3481 434 
z
" transform="scale(0.015625)"/>
       <path id="DejaVuSans-6e" d="M 3513 2113 
L 3513 0 
L 2938 0 
L 2938 2094 
Q 2938 2591 2744 2837 
Q 2550 3084 2163 3084 
Q 1697 3084 1428 2787 
Q 1159 2491 1159 1978 
L 1159 0 
L 581 0 
L 581 3500 
L 1159 3500 
L 1159 2956 
Q 1366 3272 1645 3428 
Q 1925 3584 2291 3584 
Q 2894 3584 3203 3211 
Q 3513 2838 3513 2113 
z
" transform="scale(0.015625)"/>
       <path id="DejaVuSans-6c" d="M 603 4863 
L 1178 4863 
L 1178 0 
L 603 0 
L 603 4863 
z
" transform="scale(0.015625)"/>
      </defs>
      <use xlink:href="#DejaVuSans-4c"/>
      <use xlink:href="#DejaVuSans-69" x="55.712891"/>
      <use xlink:href="#DejaVuSans-70" x="83.496094"/>
      <use xlink:href="#DejaVuSans-73" x="146.972656"/>
      <use xlink:href="#DejaVuSans-63" x="199.072266"/>
      <use xlink:href="#DejaVuSans-68" x="254.052734"/>
      <use xlink:href="#DejaVuSans-69" x="317.431641"/>
      <use xlink:href="#DejaVuSans-74" x="345.214844"/>
      <use xlink:href="#DejaVuSans-7a" x="384.423828"/>
      <use xlink:href="#DejaVuSans-20" x="436.914062"/>
      <use xlink:href="#DejaVuSans-6d" x="468.701172"/>
      <use xlink:href="#DejaVuSans-61" x="566.113281"/>
      <use xlink:href="#DejaVuSans-72" x="627.392578"/>
      <use xlink:href="#DejaVuSans-67" x="666.755859"/>
      <use xlink:href="#DejaVuSans-69" x="730.232422"/>
      <use xlink:href="#DejaVuSans-6e" x="758.015625"/>
      <use xlink:href="#DejaVuSans-61" x="821.394531"/>
      <use xlink:href="#DejaVuSans-6c" x="882.673828"/>
     </g>
    </g>
    <g id="line2d_15">
     <path d="M 649.55625 53.696562 
L 659.55625 53.696562 
L 669.55625 53.696562 
" style="fill: none; stroke: #0000ff; stroke-linecap: square"/>
    </g>
    <g id="text_12">
     <!-- GP marginal -->
     <g transform="translate(677.55625 57.196562) scale(0.1 -0.1)">
      <defs>
       <path id="DejaVuSans-47" d="M 3809 666 
L 3809 1919 
L 2778 1919 
L 2778 2438 
L 4434 2438 
L 4434 434 
Q 4069 175 3628 42 
Q 3188 -91 2688 -91 
Q 1594 -91 976 548 
Q 359 1188 359 2328 
Q 359 3472 976 4111 
Q 1594 4750 2688 4750 
Q 3144 4750 3555 4637 
Q 3966 4525 4313 4306 
L 4313 3634 
Q 3963 3931 3569 4081 
Q 3175 4231 2741 4231 
Q 1884 4231 1454 3753 
Q 1025 3275 1025 2328 
Q 1025 1384 1454 906 
Q 1884 428 2741 428 
Q 3075 428 3337 486 
Q 3600 544 3809 666 
z
" transform="scale(0.015625)"/>
       <path id="DejaVuSans-50" d="M 1259 4147 
L 1259 2394 
L 2053 2394 
Q 2494 2394 2734 2622 
Q 2975 2850 2975 3272 
Q 2975 3691 2734 3919 
Q 2494 4147 2053 4147 
L 1259 4147 
z
M 628 4666 
L 2053 4666 
Q 2838 4666 3239 4311 
Q 3641 3956 3641 3272 
Q 3641 2581 3239 2228 
Q 2838 1875 2053 1875 
L 1259 1875 
L 1259 0 
L 628 0 
L 628 4666 
z
" transform="scale(0.015625)"/>
      </defs>
      <use xlink:href="#DejaVuSans-47"/>
      <use xlink:href="#DejaVuSans-50" x="77.490234"/>
      <use xlink:href="#DejaVuSans-20" x="137.792969"/>
      <use xlink:href="#DejaVuSans-6d" x="169.580078"/>
      <use xlink:href="#DejaVuSans-61" x="266.992188"/>
      <use xlink:href="#DejaVuSans-72" x="328.271484"/>
      <use xlink:href="#DejaVuSans-67" x="367.634766"/>
      <use xlink:href="#DejaVuSans-69" x="431.111328"/>
      <use xlink:href="#DejaVuSans-6e" x="458.894531"/>
      <use xlink:href="#DejaVuSans-61" x="522.273438"/>
      <use xlink:href="#DejaVuSans-6c" x="583.552734"/>
     </g>
    </g>
    <g id="line2d_16">
     <path d="M 649.55625 68.374687 
L 659.55625 68.374687 
L 669.55625 68.374687 
" style="fill: none; stroke: #000000; stroke-linecap: square"/>
    </g>
    <g id="text_13">
     <!-- Ground truth -->
     <g transform="translate(677.55625 71.874687) scale(0.1 -0.1)">
      <defs>
       <path id="DejaVuSans-6f" d="M 1959 3097 
Q 1497 3097 1228 2736 
Q 959 2375 959 1747 
Q 959 1119 1226 758 
Q 1494 397 1959 397 
Q 2419 397 2687 759 
Q 2956 1122 2956 1747 
Q 2956 2369 2687 2733 
Q 2419 3097 1959 3097 
z
M 1959 3584 
Q 2709 3584 3137 3096 
Q 3566 2609 3566 1747 
Q 3566 888 3137 398 
Q 2709 -91 1959 -91 
Q 1206 -91 779 398 
Q 353 888 353 1747 
Q 353 2609 779 3096 
Q 1206 3584 1959 3584 
z
" transform="scale(0.015625)"/>
       <path id="DejaVuSans-75" d="M 544 1381 
L 544 3500 
L 1119 3500 
L 1119 1403 
Q 1119 906 1312 657 
Q 1506 409 1894 409 
Q 2359 409 2629 706 
Q 2900 1003 2900 1516 
L 2900 3500 
L 3475 3500 
L 3475 0 
L 2900 0 
L 2900 538 
Q 2691 219 2414 64 
Q 2138 -91 1772 -91 
Q 1169 -91 856 284 
Q 544 659 544 1381 
z
M 1991 3584 
L 1991 3584 
z
" transform="scale(0.015625)"/>
       <path id="DejaVuSans-64" d="M 2906 2969 
L 2906 4863 
L 3481 4863 
L 3481 0 
L 2906 0 
L 2906 525 
Q 2725 213 2448 61 
Q 2172 -91 1784 -91 
Q 1150 -91 751 415 
Q 353 922 353 1747 
Q 353 2572 751 3078 
Q 1150 3584 1784 3584 
Q 2172 3584 2448 3432 
Q 2725 3281 2906 2969 
z
M 947 1747 
Q 947 1113 1208 752 
Q 1469 391 1925 391 
Q 2381 391 2643 752 
Q 2906 1113 2906 1747 
Q 2906 2381 2643 2742 
Q 2381 3103 1925 3103 
Q 1469 3103 1208 2742 
Q 947 2381 947 1747 
z
" transform="scale(0.015625)"/>
      </defs>
      <use xlink:href="#DejaVuSans-47"/>
      <use xlink:href="#DejaVuSans-72" x="77.490234"/>
      <use xlink:href="#DejaVuSans-6f" x="116.353516"/>
      <use xlink:href="#DejaVuSans-75" x="177.535156"/>
      <use xlink:href="#DejaVuSans-6e" x="240.914062"/>
      <use xlink:href="#DejaVuSans-64" x="304.292969"/>
      <use xlink:href="#DejaVuSans-20" x="367.769531"/>
      <use xlink:href="#DejaVuSans-74" x="399.556641"/>
      <use xlink:href="#DejaVuSans-72" x="438.765625"/>
      <use xlink:href="#DejaVuSans-75" x="479.878906"/>
      <use xlink:href="#DejaVuSans-74" x="543.257812"/>
      <use xlink:href="#DejaVuSans-68" x="582.466797"/>
     </g>
    </g>
   </g>
  </g>
 </g>
 <defs>
  <clipPath id="p9314036f7f">
   <rect x="108" y="25.92" width="669.6" height="166.32"/>
  </clipPath>
 </defs>
</svg>
