<?xml version="1.0" encoding="utf-8" standalone="no"?>
<!DOCTYPE svg PUBLIC "-//W3C//DTD SVG 1.1//EN"
  "http://www.w3.org/Graphics/SVG/1.1/DTD/svg11.dtd">
<svg xmlns:xlink="http://www.w3.org/1999/xlink" width="864pt" height="216pt" viewBox="0 0 864 216" xmlns="http://www.w3.org/2000/svg" version="1.1">
 <metadata>
  <rdf:RDF xmlns:dc="http://purl.org/dc/elements/1.1/" xmlns:cc="http://creativecommons.org/ns#" xmlns:rdf="http://www.w3.org/1999/02/22-rdf-syntax-ns#">
   <cc:Work>
    <dc:type rdf:resource="http://purl.org/dc/dcmitype/StillImage"/>
    <dc:date>2024-12-11T12:57:46.515932</dc:date>
    <dc:format>image/svg+xml</dc:format>
    <dc:creator>
     <cc:Agent>
      <dc:title>Matplotlib v3.9.2, https://matplotlib.org/</dc:title>
     </cc:Agent>
    </dc:creator>
   </cc:Work>
  </rdf:RDF>
 </metadata>
 <defs>
  <style type="text/css">*{stroke-linejoin: round; stroke-linecap: butt}</style>
 </defs>
 <g id="figure_1">
  <g id="patch_1">
   <path d="M 0 216 
L 864 216 
L 864 0 
L 0 0 
L 0 216 
z
" style="fill: none"/>
  </g>
  <g id="axes_1">
   <g id="patch_2">
    <path d="M 108 192.24 
L 777.6 192.24 
L 777.6 25.92 
L 108 25.92 
L 108 192.24 
z
" style="fill: none"/>
   </g>
   <g id="matplotlib.axis_1">
    <g id="xtick_1">
     <g id="line2d_1">
      <defs>
       <path id="mcf535ff4f0" d="M 0 0 
L 0 3.5 
" style="stroke: #000000; stroke-width: 0.8"/>
      </defs>
      <g>
       <use xlink:href="#mcf535ff4f0" x="138.436364" y="192.24" style="stroke: #000000; stroke-width: 0.8"/>
      </g>
     </g>
     <g id="text_1">
      <!-- 0.0 -->
      <g transform="translate(130.484801 206.838437) scale(0.1 -0.1)">
       <defs>
        <path id="DejaVuSans-30" d="M 2034 4250 
Q 1547 4250 1301 3770 
Q 1056 3291 1056 2328 
Q 1056 1369 1301 889 
Q 1547 409 2034 409 
Q 2525 409 2770 889 
Q 3016 1369 3016 2328 
Q 3016 3291 2770 3770 
Q 2525 4250 2034 4250 
z
M 2034 4750 
Q 2819 4750 3233 4129 
Q 3647 3509 3647 2328 
Q 3647 1150 3233 529 
Q 2819 -91 2034 -91 
Q 1250 -91 836 529 
Q 422 1150 422 2328 
Q 422 3509 836 4129 
Q 1250 4750 2034 4750 
z
" transform="scale(0.015625)"/>
        <path id="DejaVuSans-2e" d="M 684 794 
L 1344 794 
L 1344 0 
L 684 0 
L 684 794 
z
" transform="scale(0.015625)"/>
       </defs>
       <use xlink:href="#DejaVuSans-30"/>
       <use xlink:href="#DejaVuSans-2e" x="63.623047"/>
       <use xlink:href="#DejaVuSans-30" x="95.410156"/>
      </g>
     </g>
    </g>
    <g id="xtick_2">
     <g id="line2d_2">
      <g>
       <use xlink:href="#mcf535ff4f0" x="260.181818" y="192.24" style="stroke: #000000; stroke-width: 0.8"/>
      </g>
     </g>
     <g id="text_2">
      <!-- 0.2 -->
      <g transform="translate(252.230256 206.838437) scale(0.1 -0.1)">
       <defs>
        <path id="DejaVuSans-32" d="M 1228 531 
L 3431 531 
L 3431 0 
L 469 0 
L 469 531 
Q 828 903 1448 1529 
Q 2069 2156 2228 2338 
Q 2531 2678 2651 2914 
Q 2772 3150 2772 3378 
Q 2772 3750 2511 3984 
Q 2250 4219 1831 4219 
Q 1534 4219 1204 4116 
Q 875 4013 500 3803 
L 500 4441 
Q 881 4594 1212 4672 
Q 1544 4750 1819 4750 
Q 2544 4750 2975 4387 
Q 3406 4025 3406 3419 
Q 3406 3131 3298 2873 
Q 3191 2616 2906 2266 
Q 2828 2175 2409 1742 
Q 1991 1309 1228 531 
z
" transform="scale(0.015625)"/>
       </defs>
       <use xlink:href="#DejaVuSans-30"/>
       <use xlink:href="#DejaVuSans-2e" x="63.623047"/>
       <use xlink:href="#DejaVuSans-32" x="95.410156"/>
      </g>
     </g>
    </g>
    <g id="xtick_3">
     <g id="line2d_3">
      <g>
       <use xlink:href="#mcf535ff4f0" x="381.927273" y="192.24" style="stroke: #000000; stroke-width: 0.8"/>
      </g>
     </g>
     <g id="text_3">
      <!-- 0.4 -->
      <g transform="translate(373.97571 206.838437) scale(0.1 -0.1)">
       <defs>
        <path id="DejaVuSans-34" d="M 2419 4116 
L 825 1625 
L 2419 1625 
L 2419 4116 
z
M 2253 4666 
L 3047 4666 
L 3047 1625 
L 3713 1625 
L 3713 1100 
L 3047 1100 
L 3047 0 
L 2419 0 
L 2419 1100 
L 313 1100 
L 313 1709 
L 2253 4666 
z
" transform="scale(0.015625)"/>
       </defs>
       <use xlink:href="#DejaVuSans-30"/>
       <use xlink:href="#DejaVuSans-2e" x="63.623047"/>
       <use xlink:href="#DejaVuSans-34" x="95.410156"/>
      </g>
     </g>
    </g>
    <g id="xtick_4">
     <g id="line2d_4">
      <g>
       <use xlink:href="#mcf535ff4f0" x="503.672727" y="192.24" style="stroke: #000000; stroke-width: 0.8"/>
      </g>
     </g>
     <g id="text_4">
      <!-- 0.6 -->
      <g transform="translate(495.721165 206.838437) scale(0.1 -0.1)">
       <defs>
        <path id="DejaVuSans-36" d="M 2113 2584 
Q 1688 2584 1439 2293 
Q 1191 2003 1191 1497 
Q 1191 994 1439 701 
Q 1688 409 2113 409 
Q 2538 409 2786 701 
Q 3034 994 3034 1497 
Q 3034 2003 2786 2293 
Q 2538 2584 2113 2584 
z
M 3366 4563 
L 3366 3988 
Q 3128 4100 2886 4159 
Q 2644 4219 2406 4219 
Q 1781 4219 1451 3797 
Q 1122 3375 1075 2522 
Q 1259 2794 1537 2939 
Q 1816 3084 2150 3084 
Q 2853 3084 3261 2657 
Q 3669 2231 3669 1497 
Q 3669 778 3244 343 
Q 2819 -91 2113 -91 
Q 1303 -91 875 529 
Q 447 1150 447 2328 
Q 447 3434 972 4092 
Q 1497 4750 2381 4750 
Q 2619 4750 2861 4703 
Q 3103 4656 3366 4563 
z
" transform="scale(0.015625)"/>
       </defs>
       <use xlink:href="#DejaVuSans-30"/>
       <use xlink:href="#DejaVuSans-2e" x="63.623047"/>
       <use xlink:href="#DejaVuSans-36" x="95.410156"/>
      </g>
     </g>
    </g>
    <g id="xtick_5">
     <g id="line2d_5">
      <g>
       <use xlink:href="#mcf535ff4f0" x="625.418182" y="192.24" style="stroke: #000000; stroke-width: 0.8"/>
      </g>
     </g>
     <g id="text_5">
      <!-- 0.8 -->
      <g transform="translate(617.466619 206.838437) scale(0.1 -0.1)">
       <defs>
        <path id="DejaVuSans-38" d="M 2034 2216 
Q 1584 2216 1326 1975 
Q 1069 1734 1069 1313 
Q 1069 891 1326 650 
Q 1584 409 2034 409 
Q 2484 409 2743 651 
Q 3003 894 3003 1313 
Q 3003 1734 2745 1975 
Q 2488 2216 2034 2216 
z
M 1403 2484 
Q 997 2584 770 2862 
Q 544 3141 544 3541 
Q 544 4100 942 4425 
Q 1341 4750 2034 4750 
Q 2731 4750 3128 4425 
Q 3525 4100 3525 3541 
Q 3525 3141 3298 2862 
Q 3072 2584 2669 2484 
Q 3125 2378 3379 2068 
Q 3634 1759 3634 1313 
Q 3634 634 3220 271 
Q 2806 -91 2034 -91 
Q 1263 -91 848 271 
Q 434 634 434 1313 
Q 434 1759 690 2068 
Q 947 2378 1403 2484 
z
M 1172 3481 
Q 1172 3119 1398 2916 
Q 1625 2713 2034 2713 
Q 2441 2713 2670 2916 
Q 2900 3119 2900 3481 
Q 2900 3844 2670 4047 
Q 2441 4250 2034 4250 
Q 1625 4250 1398 4047 
Q 1172 3844 1172 3481 
z
" transform="scale(0.015625)"/>
       </defs>
       <use xlink:href="#DejaVuSans-30"/>
       <use xlink:href="#DejaVuSans-2e" x="63.623047"/>
       <use xlink:href="#DejaVuSans-38" x="95.410156"/>
      </g>
     </g>
    </g>
    <g id="xtick_6">
     <g id="line2d_6">
      <g>
       <use xlink:href="#mcf535ff4f0" x="747.163636" y="192.24" style="stroke: #000000; stroke-width: 0.8"/>
      </g>
     </g>
     <g id="text_6">
      <!-- 1.0 -->
      <g transform="translate(739.212074 206.838437) scale(0.1 -0.1)">
       <defs>
        <path id="DejaVuSans-31" d="M 794 531 
L 1825 531 
L 1825 4091 
L 703 3866 
L 703 4441 
L 1819 4666 
L 2450 4666 
L 2450 531 
L 3481 531 
L 3481 0 
L 794 0 
L 794 531 
z
" transform="scale(0.015625)"/>
       </defs>
       <use xlink:href="#DejaVuSans-31"/>
       <use xlink:href="#DejaVuSans-2e" x="63.623047"/>
       <use xlink:href="#DejaVuSans-30" x="95.410156"/>
      </g>
     </g>
    </g>
   </g>
   <g id="matplotlib.axis_2">
    <g id="ytick_1">
     <g id="line2d_7">
      <defs>
       <path id="m1dd6ca5a34" d="M 0 0 
L -3.5 0 
" style="stroke: #000000; stroke-width: 0.8"/>
      </defs>
      <g>
       <use xlink:href="#m1dd6ca5a34" x="108" y="184.68" style="stroke: #000000; stroke-width: 0.8"/>
      </g>
     </g>
     <g id="text_7">
      <!-- 0 -->
      <g transform="translate(94.6375 188.479219) scale(0.1 -0.1)">
       <use xlink:href="#DejaVuSans-30"/>
      </g>
     </g>
    </g>
    <g id="ytick_2">
     <g id="line2d_8">
      <g>
       <use xlink:href="#m1dd6ca5a34" x="108" y="160.012636" style="stroke: #000000; stroke-width: 0.8"/>
      </g>
     </g>
     <g id="text_8">
      <!-- 2 -->
      <g transform="translate(94.6375 163.811854) scale(0.1 -0.1)">
       <use xlink:href="#DejaVuSans-32"/>
      </g>
     </g>
    </g>
    <g id="ytick_3">
     <g id="line2d_9">
      <g>
       <use xlink:href="#m1dd6ca5a34" x="108" y="135.345271" style="stroke: #000000; stroke-width: 0.8"/>
      </g>
     </g>
     <g id="text_9">
      <!-- 4 -->
      <g transform="translate(94.6375 139.14449) scale(0.1 -0.1)">
       <use xlink:href="#DejaVuSans-34"/>
      </g>
     </g>
    </g>
    <g id="ytick_4">
     <g id="line2d_10">
      <g>
       <use xlink:href="#m1dd6ca5a34" x="108" y="110.677907" style="stroke: #000000; stroke-width: 0.8"/>
      </g>
     </g>
     <g id="text_10">
      <!-- 6 -->
      <g transform="translate(94.6375 114.477126) scale(0.1 -0.1)">
       <use xlink:href="#DejaVuSans-36"/>
      </g>
     </g>
    </g>
    <g id="ytick_5">
     <g id="line2d_11">
      <g>
       <use xlink:href="#m1dd6ca5a34" x="108" y="86.010543" style="stroke: #000000; stroke-width: 0.8"/>
      </g>
     </g>
     <g id="text_11">
      <!-- 8 -->
      <g transform="translate(94.6375 89.809762) scale(0.1 -0.1)">
       <use xlink:href="#DejaVuSans-38"/>
      </g>
     </g>
    </g>
    <g id="ytick_6">
     <g id="line2d_12">
      <g>
       <use xlink:href="#m1dd6ca5a34" x="108" y="61.343179" style="stroke: #000000; stroke-width: 0.8"/>
      </g>
     </g>
     <g id="text_12">
      <!-- 10 -->
      <g transform="translate(88.275 65.142397) scale(0.1 -0.1)">
       <use xlink:href="#DejaVuSans-31"/>
       <use xlink:href="#DejaVuSans-30" x="63.623047"/>
      </g>
     </g>
    </g>
    <g id="ytick_7">
     <g id="line2d_13">
      <g>
       <use xlink:href="#m1dd6ca5a34" x="108" y="36.675814" style="stroke: #000000; stroke-width: 0.8"/>
      </g>
     </g>
     <g id="text_13">
      <!-- 12 -->
      <g transform="translate(88.275 40.475033) scale(0.1 -0.1)">
       <use xlink:href="#DejaVuSans-31"/>
       <use xlink:href="#DejaVuSans-32" x="63.623047"/>
      </g>
     </g>
    </g>
   </g>
   <g id="line2d_14">
    <path d="M 138.436364 184.679659 
L 271.271744 184.564178 
L 274.927764 184.31692 
L 277.365111 183.948256 
L 279.19312 183.480964 
L 281.02113 182.767739 
L 282.239803 182.108487 
L 283.458477 181.26295 
L 284.67715 180.193012 
L 285.895823 178.857362 
L 287.114496 177.212643 
L 288.33317 175.215067 
L 289.551843 172.822493 
L 290.770516 169.996944 
L 291.989189 166.707483 
L 293.207862 162.933317 
L 295.035872 156.35126 
L 296.863882 148.711924 
L 298.691892 140.162011 
L 301.738575 124.634097 
L 304.785258 109.142317 
L 306.613268 100.821184 
L 307.831941 96.000403 
L 309.050614 91.927443 
L 310.269287 88.725819 
L 310.878624 87.483977 
L 311.487961 86.495177 
L 312.097297 85.767312 
L 312.706634 85.306225 
L 313.315971 85.11563 
L 313.925307 84.230284 
L 315.14398 81.941769 
L 315.753317 80.924699 
L 316.362654 81.59456 
L 318.190663 84.975785 
L 318.8 85.105558 
L 319.409337 85.507537 
L 320.018673 85.090758 
L 321.237346 82.855678 
L 321.846683 81.862226 
L 322.45602 82.435763 
L 323.674693 84.604785 
L 324.893366 87.075954 
L 325.502703 86.583624 
L 327.330713 83.134218 
L 327.940049 82.144661 
L 328.549386 82.636089 
L 329.768059 81.773662 
L 330.377396 81.661623 
L 330.986732 81.852659 
L 331.596069 82.345093 
L 332.205405 83.134612 
L 332.814742 84.21433 
L 334.033415 87.204584 
L 335.252088 91.213932 
L 336.470762 96.109014 
L 338.298771 104.763387 
L 340.736118 117.82509 
L 345.001474 141.032048 
L 346.829484 149.907066 
L 348.657494 157.711329 
L 350.485504 164.319542 
L 351.704177 168.049872 
L 352.92285 171.259041 
L 354.141523 173.978584 
L 355.360197 176.249403 
L 356.57887 178.11818 
L 357.797543 179.634216 
L 359.016216 180.846805 
L 360.234889 181.803195 
L 361.453563 182.547119 
L 363.281572 183.34923 
L 365.109582 183.872261 
L 367.546929 184.282364 
L 370.593612 184.527023 
L 375.468305 184.651759 
L 390.092383 184.679947 
L 666.121867 184.585731 
L 669.777887 184.366393 
L 672.215233 184.023789 
L 674.043243 183.575422 
L 675.871253 182.872531 
L 677.089926 182.209198 
L 678.3086 181.344534 
L 679.527273 180.233379 
L 680.745946 178.825878 
L 681.964619 177.068768 
L 683.183292 174.907341 
L 684.401966 172.288089 
L 685.620639 169.162043 
L 686.839312 165.488697 
L 688.057985 161.240367 
L 689.885995 153.772988 
L 691.714005 145.054499 
L 693.542015 135.281713 
L 697.198034 114.101577 
L 699.635381 100.550202 
L 701.463391 91.788485 
L 702.682064 86.976815 
L 703.900737 83.185815 
L 704.510074 81.716693 
L 705.11941 80.550459 
L 705.728747 79.697813 
L 706.338084 79.166628 
L 706.94742 78.961832 
L 707.556757 79.085328 
L 708.166093 79.535968 
L 708.77543 80.309568 
L 709.384767 81.398977 
L 709.994103 82.794181 
L 711.212776 86.448582 
L 712.43145 91.142246 
L 713.650123 96.712437 
L 715.478133 106.301457 
L 719.134152 127.47063 
L 721.571499 141.101228 
L 723.399509 150.290601 
L 725.227518 158.293057 
L 727.055528 164.993877 
L 728.274201 168.737278 
L 729.492875 171.929161 
L 730.711548 174.608685 
L 731.930221 176.823997 
L 733.148894 178.628233 
L 734.367568 180.076114 
L 735.586241 181.221199 
L 736.804914 182.113852 
L 738.023587 182.799861 
L 738.632924 182.909235 
L 741.07027 182.429079 
L 743.507617 181.684609 
L 745.335627 180.924745 
L 747.163636 179.970863 
L 747.163636 179.970863 
" clip-path="url(#pddb9fa2a35)" style="fill: none; stroke: #ff0000; stroke-linecap: square"/>
   </g>
   <g id="line2d_15">
    <path d="M 138.436364 184.679484 
L 287.114496 184.604779 
L 291.379853 184.38948 
L 293.817199 184.071235 
L 295.645209 183.640043 
L 297.473219 182.936538 
L 298.691892 182.247486 
L 299.910565 181.319118 
L 301.129238 180.084043 
L 302.347912 178.462705 
L 303.566585 176.363943 
L 304.785258 173.686875 
L 306.003931 170.32445 
L 307.222604 166.16896 
L 308.441278 161.119646 
L 309.659951 155.092316 
L 310.878624 148.03059 
L 312.097297 139.918037 
L 313.925307 125.87327 
L 315.753317 109.94853 
L 321.237346 59.964675 
L 322.45602 50.840274 
L 323.674693 43.324508 
L 324.893366 37.76484 
L 325.502703 35.805774 
L 326.112039 34.428316 
L 326.721376 33.649736 
L 327.330713 33.48 
L 327.940049 33.921555 
L 328.549386 34.969276 
L 329.158722 36.610571 
L 329.768059 38.825641 
L 330.986732 44.86447 
L 332.205405 52.802077 
L 333.424079 62.278316 
L 335.252088 78.476805 
L 340.126781 123.599731 
L 341.954791 138.140796 
L 343.782801 150.421994 
L 345.001474 157.274053 
L 346.220147 163.080826 
L 347.438821 167.906993 
L 348.657494 171.843669 
L 349.876167 174.997123 
L 351.09484 177.479192 
L 352.313514 179.399766 
L 353.532187 180.861401 
L 354.75086 181.955922 
L 355.969533 182.762714 
L 357.188206 183.348335 
L 359.016216 183.927763 
L 360.844226 184.267079 
L 363.281572 184.502283 
L 367.546929 184.643745 
L 379.124324 184.67975 
L 667.340541 184.601256 
L 670.99656 184.369668 
L 673.433907 183.959185 
L 675.261916 183.375052 
L 676.48059 182.777392 
L 677.699263 181.947489 
L 678.917936 180.814781 
L 680.136609 179.295648 
L 681.355283 177.294301 
L 682.573956 174.70518 
L 683.792629 171.417203 
L 685.011302 167.320068 
L 686.229975 162.312607 
L 687.448649 156.312952 
L 688.667322 149.26992 
L 689.885995 141.174715 
L 691.714005 127.173008 
L 693.542015 111.334355 
L 699.026044 61.73028 
L 700.244717 52.577497 
L 701.463391 44.915092 
L 702.682064 39.052005 
L 703.2914 36.872148 
L 703.900737 35.223704 
L 704.510074 34.121952 
L 705.11941 33.575914 
L 705.728747 33.58824 
L 706.338084 34.155215 
L 706.94742 35.266893 
L 707.556757 36.907352 
L 708.166093 39.055046 
L 709.384767 44.760706 
L 710.60344 52.11856 
L 711.822113 60.810188 
L 713.650123 75.582132 
L 719.134152 121.920415 
L 720.962162 135.192811 
L 722.790172 146.596614 
L 724.008845 153.103828 
L 725.227518 158.749918 
L 726.446192 163.579273 
L 727.664865 167.655226 
L 728.883538 171.052689 
L 730.102211 173.85191 
L 731.320885 176.133497 
L 732.539558 177.974731 
L 733.758231 179.447058 
L 734.976904 180.614603 
L 736.195577 181.533502 
L 738.023587 182.548762 
L 739.851597 183.241803 
L 741.679607 183.710146 
L 744.116953 184.103924 
L 747.163636 184.374109 
L 747.163636 184.374109 
" clip-path="url(#pddb9fa2a35)" style="fill: none; stroke: #0000ff; stroke-linecap: square"/>
   </g>
   <g id="line2d_16">
    <path d="M 138.436364 184.67994 
L 279.802457 184.578838 
L 284.067813 184.362075 
L 287.114496 183.986078 
L 288.942506 183.590498 
L 290.770516 182.993416 
L 292.598526 182.10829 
L 293.817199 181.303178 
L 295.035872 180.278865 
L 296.254545 178.987941 
L 297.473219 177.376992 
L 298.691892 175.387287 
L 299.910565 172.956043 
L 301.129238 170.01841 
L 302.347912 166.510245 
L 303.566585 162.37172 
L 304.785258 157.551745 
L 306.003931 152.013078 
L 307.831941 142.325364 
L 309.659951 131.038613 
L 311.487961 118.371744 
L 314.534644 95.4048 
L 317.581327 72.91435 
L 319.409337 61.3309 
L 320.62801 54.971033 
L 321.846683 49.988398 
L 322.45602 48.07898 
L 323.065356 46.586185 
L 323.674693 45.526971 
L 324.284029 44.914257 
L 324.893366 44.756677 
L 325.502703 45.05839 
L 326.112039 45.81897 
L 326.721376 47.033376 
L 327.330713 48.691988 
L 327.940049 50.780735 
L 329.158722 56.171356 
L 330.377396 63.012949 
L 331.596069 71.061699 
L 333.424079 84.778762 
L 339.517445 132.944121 
L 341.345455 145.073549 
L 343.173464 155.330085 
L 344.392138 161.077762 
L 345.610811 165.974061 
L 346.829484 170.069109 
L 348.048157 173.432933 
L 349.26683 176.147716 
L 350.485504 178.300944 
L 351.704177 179.979783 
L 352.92285 181.266825 
L 354.141523 182.237182 
L 355.360197 182.956817 
L 357.188206 183.686339 
L 359.016216 184.125227 
L 361.453563 184.437357 
L 365.109582 184.616837 
L 372.421622 184.677039 
L 469.306143 184.68 
L 666.121867 184.584722 
L 669.16855 184.393961 
L 671.605897 184.033157 
L 673.433907 183.53103 
L 674.65258 183.024814 
L 675.871253 182.329746 
L 677.089926 181.390781 
L 678.3086 180.143049 
L 679.527273 178.512405 
L 680.745946 176.416979 
L 681.964619 173.769934 
L 683.183292 170.483565 
L 684.401966 166.474768 
L 685.620639 161.671769 
L 686.839312 156.021794 
L 688.057985 149.499193 
L 689.885995 138.110976 
L 691.714005 125.00427 
L 694.151351 105.679394 
L 697.807371 76.470503 
L 699.635381 63.865123 
L 700.854054 56.874388 
L 702.072727 51.309457 
L 702.682064 49.126087 
L 703.2914 47.369082 
L 703.900737 46.053493 
L 704.510074 45.189956 
L 705.11941 44.784553 
L 705.728747 44.83875 
L 706.338084 45.349413 
L 706.94742 46.308907 
L 707.556757 47.705258 
L 708.166093 49.522393 
L 709.384767 54.336097 
L 710.60344 60.552206 
L 711.822113 67.931498 
L 713.650123 80.596933 
L 720.962162 134.096547 
L 722.790172 144.984155 
L 724.618182 154.244741 
L 725.836855 159.5018 
L 727.055528 164.052596 
L 728.274201 167.940376 
L 729.492875 171.220187 
L 730.711548 173.954009 
L 731.930221 176.206641 
L 733.148894 178.042416 
L 734.367568 179.522742 
L 735.586241 180.704408 
L 736.804914 181.638554 
L 738.023587 182.370189 
L 739.851597 183.171218 
L 741.679607 183.708996 
L 744.116953 184.151901 
L 747.163636 184.440891 
L 747.163636 184.440891 
" clip-path="url(#pddb9fa2a35)" style="fill: none; stroke: #000000; stroke-linecap: square"/>
   </g>
   <g id="patch_3">
    <path d="M 108 192.24 
L 108 25.92 
" style="fill: none; stroke: #000000; stroke-width: 0.8; stroke-linejoin: miter; stroke-linecap: square"/>
   </g>
   <g id="patch_4">
    <path d="M 777.6 192.24 
L 777.6 25.92 
" style="fill: none; stroke: #000000; stroke-width: 0.8; stroke-linejoin: miter; stroke-linecap: square"/>
   </g>
   <g id="patch_5">
    <path d="M 108 192.24 
L 777.6 192.24 
" style="fill: none; stroke: #000000; stroke-width: 0.8; stroke-linejoin: miter; stroke-linecap: square"/>
   </g>
   <g id="patch_6">
    <path d="M 108 25.92 
L 777.6 25.92 
" style="fill: none; stroke: #000000; stroke-width: 0.8; stroke-linejoin: miter; stroke-linecap: square"/>
   </g>
   <g id="legend_1">
    <g id="patch_7">
     <path d="M 115 77.954375 
L 238.04375 77.954375 
Q 240.04375 77.954375 240.04375 75.954375 
L 240.04375 32.92 
Q 240.04375 30.92 238.04375 30.92 
L 115 30.92 
Q 113 30.92 113 32.92 
L 113 75.954375 
Q 113 77.954375 115 77.954375 
z
" style="fill: #ffffff; opacity: 0.8; stroke: #cccccc; stroke-linejoin: miter"/>
    </g>
    <g id="line2d_17">
     <path d="M 117 39.018438 
L 127 39.018438 
L 137 39.018438 
" style="fill: none; stroke: #ff0000; stroke-linecap: square"/>
    </g>
    <g id="text_14">
     <!-- Lipschitz marginal -->
     <g transform="translate(145 42.518438) scale(0.1 -0.1)">
      <defs>
       <path id="DejaVuSans-4c" d="M 628 4666 
L 1259 4666 
L 1259 531 
L 3531 531 
L 3531 0 
L 628 0 
L 628 4666 
z
" transform="scale(0.015625)"/>
       <path id="DejaVuSans-69" d="M 603 3500 
L 1178 3500 
L 1178 0 
L 603 0 
L 603 3500 
z
M 603 4863 
L 1178 4863 
L 1178 4134 
L 603 4134 
L 603 4863 
z
" transform="scale(0.015625)"/>
       <path id="DejaVuSans-70" d="M 1159 525 
L 1159 -1331 
L 581 -1331 
L 581 3500 
L 1159 3500 
L 1159 2969 
Q 1341 3281 1617 3432 
Q 1894 3584 2278 3584 
Q 2916 3584 3314 3078 
Q 3713 2572 3713 1747 
Q 3713 922 3314 415 
Q 2916 -91 2278 -91 
Q 1894 -91 1617 61 
Q 1341 213 1159 525 
z
M 3116 1747 
Q 3116 2381 2855 2742 
Q 2594 3103 2138 3103 
Q 1681 3103 1420 2742 
Q 1159 2381 1159 1747 
Q 1159 1113 1420 752 
Q 1681 391 2138 391 
Q 2594 391 2855 752 
Q 3116 1113 3116 1747 
z
" transform="scale(0.015625)"/>
       <path id="DejaVuSans-73" d="M 2834 3397 
L 2834 2853 
Q 2591 2978 2328 3040 
Q 2066 3103 1784 3103 
Q 1356 3103 1142 2972 
Q 928 2841 928 2578 
Q 928 2378 1081 2264 
Q 1234 2150 1697 2047 
L 1894 2003 
Q 2506 1872 2764 1633 
Q 3022 1394 3022 966 
Q 3022 478 2636 193 
Q 2250 -91 1575 -91 
Q 1294 -91 989 -36 
Q 684 19 347 128 
L 347 722 
Q 666 556 975 473 
Q 1284 391 1588 391 
Q 1994 391 2212 530 
Q 2431 669 2431 922 
Q 2431 1156 2273 1281 
Q 2116 1406 1581 1522 
L 1381 1569 
Q 847 1681 609 1914 
Q 372 2147 372 2553 
Q 372 3047 722 3315 
Q 1072 3584 1716 3584 
Q 2034 3584 2315 3537 
Q 2597 3491 2834 3397 
z
" transform="scale(0.015625)"/>
       <path id="DejaVuSans-63" d="M 3122 3366 
L 3122 2828 
Q 2878 2963 2633 3030 
Q 2388 3097 2138 3097 
Q 1578 3097 1268 2742 
Q 959 2388 959 1747 
Q 959 1106 1268 751 
Q 1578 397 2138 397 
Q 2388 397 2633 464 
Q 2878 531 3122 666 
L 3122 134 
Q 2881 22 2623 -34 
Q 2366 -91 2075 -91 
Q 1284 -91 818 406 
Q 353 903 353 1747 
Q 353 2603 823 3093 
Q 1294 3584 2113 3584 
Q 2378 3584 2631 3529 
Q 2884 3475 3122 3366 
z
" transform="scale(0.015625)"/>
       <path id="DejaVuSans-68" d="M 3513 2113 
L 3513 0 
L 2938 0 
L 2938 2094 
Q 2938 2591 2744 2837 
Q 2550 3084 2163 3084 
Q 1697 3084 1428 2787 
Q 1159 2491 1159 1978 
L 1159 0 
L 581 0 
L 581 4863 
L 1159 4863 
L 1159 2956 
Q 1366 3272 1645 3428 
Q 1925 3584 2291 3584 
Q 2894 3584 3203 3211 
Q 3513 2838 3513 2113 
z
" transform="scale(0.015625)"/>
       <path id="DejaVuSans-74" d="M 1172 4494 
L 1172 3500 
L 2356 3500 
L 2356 3053 
L 1172 3053 
L 1172 1153 
Q 1172 725 1289 603 
Q 1406 481 1766 481 
L 2356 481 
L 2356 0 
L 1766 0 
Q 1100 0 847 248 
Q 594 497 594 1153 
L 594 3053 
L 172 3053 
L 172 3500 
L 594 3500 
L 594 4494 
L 1172 4494 
z
" transform="scale(0.015625)"/>
       <path id="DejaVuSans-7a" d="M 353 3500 
L 3084 3500 
L 3084 2975 
L 922 459 
L 3084 459 
L 3084 0 
L 275 0 
L 275 525 
L 2438 3041 
L 353 3041 
L 353 3500 
z
" transform="scale(0.015625)"/>
       <path id="DejaVuSans-20" transform="scale(0.015625)"/>
       <path id="DejaVuSans-6d" d="M 3328 2828 
Q 3544 3216 3844 3400 
Q 4144 3584 4550 3584 
Q 5097 3584 5394 3201 
Q 5691 2819 5691 2113 
L 5691 0 
L 5113 0 
L 5113 2094 
Q 5113 2597 4934 2840 
Q 4756 3084 4391 3084 
Q 3944 3084 3684 2787 
Q 3425 2491 3425 1978 
L 3425 0 
L 2847 0 
L 2847 2094 
Q 2847 2600 2669 2842 
Q 2491 3084 2119 3084 
Q 1678 3084 1418 2786 
Q 1159 2488 1159 1978 
L 1159 0 
L 581 0 
L 581 3500 
L 1159 3500 
L 1159 2956 
Q 1356 3278 1631 3431 
Q 1906 3584 2284 3584 
Q 2666 3584 2933 3390 
Q 3200 3197 3328 2828 
z
" transform="scale(0.015625)"/>
       <path id="DejaVuSans-61" d="M 2194 1759 
Q 1497 1759 1228 1600 
Q 959 1441 959 1056 
Q 959 750 1161 570 
Q 1363 391 1709 391 
Q 2188 391 2477 730 
Q 2766 1069 2766 1631 
L 2766 1759 
L 2194 1759 
z
M 3341 1997 
L 3341 0 
L 2766 0 
L 2766 531 
Q 2569 213 2275 61 
Q 1981 -91 1556 -91 
Q 1019 -91 701 211 
Q 384 513 384 1019 
Q 384 1609 779 1909 
Q 1175 2209 1959 2209 
L 2766 2209 
L 2766 2266 
Q 2766 2663 2505 2880 
Q 2244 3097 1772 3097 
Q 1472 3097 1187 3025 
Q 903 2953 641 2809 
L 641 3341 
Q 956 3463 1253 3523 
Q 1550 3584 1831 3584 
Q 2591 3584 2966 3190 
Q 3341 2797 3341 1997 
z
" transform="scale(0.015625)"/>
       <path id="DejaVuSans-72" d="M 2631 2963 
Q 2534 3019 2420 3045 
Q 2306 3072 2169 3072 
Q 1681 3072 1420 2755 
Q 1159 2438 1159 1844 
L 1159 0 
L 581 0 
L 581 3500 
L 1159 3500 
L 1159 2956 
Q 1341 3275 1631 3429 
Q 1922 3584 2338 3584 
Q 2397 3584 2469 3576 
Q 2541 3569 2628 3553 
L 2631 2963 
z
" transform="scale(0.015625)"/>
       <path id="DejaVuSans-67" d="M 2906 1791 
Q 2906 2416 2648 2759 
Q 2391 3103 1925 3103 
Q 1463 3103 1205 2759 
Q 947 2416 947 1791 
Q 947 1169 1205 825 
Q 1463 481 1925 481 
Q 2391 481 2648 825 
Q 2906 1169 2906 1791 
z
M 3481 434 
Q 3481 -459 3084 -895 
Q 2688 -1331 1869 -1331 
Q 1566 -1331 1297 -1286 
Q 1028 -1241 775 -1147 
L 775 -588 
Q 1028 -725 1275 -790 
Q 1522 -856 1778 -856 
Q 2344 -856 2625 -561 
Q 2906 -266 2906 331 
L 2906 616 
Q 2728 306 2450 153 
Q 2172 0 1784 0 
Q 1141 0 747 490 
Q 353 981 353 1791 
Q 353 2603 747 3093 
Q 1141 3584 1784 3584 
Q 2172 3584 2450 3431 
Q 2728 3278 2906 2969 
L 2906 3500 
L 3481 3500 
L 3481 434 
z
" transform="scale(0.015625)"/>
       <path id="DejaVuSans-6e" d="M 3513 2113 
L 3513 0 
L 2938 0 
L 2938 2094 
Q 2938 2591 2744 2837 
Q 2550 3084 2163 3084 
Q 1697 3084 1428 2787 
Q 1159 2491 1159 1978 
L 1159 0 
L 581 0 
L 581 3500 
L 1159 3500 
L 1159 2956 
Q 1366 3272 1645 3428 
Q 1925 3584 2291 3584 
Q 2894 3584 3203 3211 
Q 3513 2838 3513 2113 
z
" transform="scale(0.015625)"/>
       <path id="DejaVuSans-6c" d="M 603 4863 
L 1178 4863 
L 1178 0 
L 603 0 
L 603 4863 
z
" transform="scale(0.015625)"/>
      </defs>
      <use xlink:href="#DejaVuSans-4c"/>
      <use xlink:href="#DejaVuSans-69" x="55.712891"/>
      <use xlink:href="#DejaVuSans-70" x="83.496094"/>
      <use xlink:href="#DejaVuSans-73" x="146.972656"/>
      <use xlink:href="#DejaVuSans-63" x="199.072266"/>
      <use xlink:href="#DejaVuSans-68" x="254.052734"/>
      <use xlink:href="#DejaVuSans-69" x="317.431641"/>
      <use xlink:href="#DejaVuSans-74" x="345.214844"/>
      <use xlink:href="#DejaVuSans-7a" x="384.423828"/>
      <use xlink:href="#DejaVuSans-20" x="436.914062"/>
      <use xlink:href="#DejaVuSans-6d" x="468.701172"/>
      <use xlink:href="#DejaVuSans-61" x="566.113281"/>
      <use xlink:href="#DejaVuSans-72" x="627.392578"/>
      <use xlink:href="#DejaVuSans-67" x="666.755859"/>
      <use xlink:href="#DejaVuSans-69" x="730.232422"/>
      <use xlink:href="#DejaVuSans-6e" x="758.015625"/>
      <use xlink:href="#DejaVuSans-61" x="821.394531"/>
      <use xlink:href="#DejaVuSans-6c" x="882.673828"/>
     </g>
    </g>
    <g id="line2d_18">
     <path d="M 117 53.696562 
L 127 53.696562 
L 137 53.696562 
" style="fill: none; stroke: #0000ff; stroke-linecap: square"/>
    </g>
    <g id="text_15">
     <!-- GP marginal -->
     <g transform="translate(145 57.196562) scale(0.1 -0.1)">
      <defs>
       <path id="DejaVuSans-47" d="M 3809 666 
L 3809 1919 
L 2778 1919 
L 2778 2438 
L 4434 2438 
L 4434 434 
Q 4069 175 3628 42 
Q 3188 -91 2688 -91 
Q 1594 -91 976 548 
Q 359 1188 359 2328 
Q 359 3472 976 4111 
Q 1594 4750 2688 4750 
Q 3144 4750 3555 4637 
Q 3966 4525 4313 4306 
L 4313 3634 
Q 3963 3931 3569 4081 
Q 3175 4231 2741 4231 
Q 1884 4231 1454 3753 
Q 1025 3275 1025 2328 
Q 1025 1384 1454 906 
Q 1884 428 2741 428 
Q 3075 428 3337 486 
Q 3600 544 3809 666 
z
" transform="scale(0.015625)"/>
       <path id="DejaVuSans-50" d="M 1259 4147 
L 1259 2394 
L 2053 2394 
Q 2494 2394 2734 2622 
Q 2975 2850 2975 3272 
Q 2975 3691 2734 3919 
Q 2494 4147 2053 4147 
L 1259 4147 
z
M 628 4666 
L 2053 4666 
Q 2838 4666 3239 4311 
Q 3641 3956 3641 3272 
Q 3641 2581 3239 2228 
Q 2838 1875 2053 1875 
L 1259 1875 
L 1259 0 
L 628 0 
L 628 4666 
z
" transform="scale(0.015625)"/>
      </defs>
      <use xlink:href="#DejaVuSans-47"/>
      <use xlink:href="#DejaVuSans-50" x="77.490234"/>
      <use xlink:href="#DejaVuSans-20" x="137.792969"/>
      <use xlink:href="#DejaVuSans-6d" x="169.580078"/>
      <use xlink:href="#DejaVuSans-61" x="266.992188"/>
      <use xlink:href="#DejaVuSans-72" x="328.271484"/>
      <use xlink:href="#DejaVuSans-67" x="367.634766"/>
      <use xlink:href="#DejaVuSans-69" x="431.111328"/>
      <use xlink:href="#DejaVuSans-6e" x="458.894531"/>
      <use xlink:href="#DejaVuSans-61" x="522.273438"/>
      <use xlink:href="#DejaVuSans-6c" x="583.552734"/>
     </g>
    </g>
    <g id="line2d_19">
     <path d="M 117 68.374687 
L 127 68.374687 
L 137 68.374687 
" style="fill: none; stroke: #000000; stroke-linecap: square"/>
    </g>
    <g id="text_16">
     <!-- Ground truth -->
     <g transform="translate(145 71.874687) scale(0.1 -0.1)">
      <defs>
       <path id="DejaVuSans-6f" d="M 1959 3097 
Q 1497 3097 1228 2736 
Q 959 2375 959 1747 
Q 959 1119 1226 758 
Q 1494 397 1959 397 
Q 2419 397 2687 759 
Q 2956 1122 2956 1747 
Q 2956 2369 2687 2733 
Q 2419 3097 1959 3097 
z
M 1959 3584 
Q 2709 3584 3137 3096 
Q 3566 2609 3566 1747 
Q 3566 888 3137 398 
Q 2709 -91 1959 -91 
Q 1206 -91 779 398 
Q 353 888 353 1747 
Q 353 2609 779 3096 
Q 1206 3584 1959 3584 
z
" transform="scale(0.015625)"/>
       <path id="DejaVuSans-75" d="M 544 1381 
L 544 3500 
L 1119 3500 
L 1119 1403 
Q 1119 906 1312 657 
Q 1506 409 1894 409 
Q 2359 409 2629 706 
Q 2900 1003 2900 1516 
L 2900 3500 
L 3475 3500 
L 3475 0 
L 2900 0 
L 2900 538 
Q 2691 219 2414 64 
Q 2138 -91 1772 -91 
Q 1169 -91 856 284 
Q 544 659 544 1381 
z
M 1991 3584 
L 1991 3584 
z
" transform="scale(0.015625)"/>
       <path id="DejaVuSans-64" d="M 2906 2969 
L 2906 4863 
L 3481 4863 
L 3481 0 
L 2906 0 
L 2906 525 
Q 2725 213 2448 61 
Q 2172 -91 1784 -91 
Q 1150 -91 751 415 
Q 353 922 353 1747 
Q 353 2572 751 3078 
Q 1150 3584 1784 3584 
Q 2172 3584 2448 3432 
Q 2725 3281 2906 2969 
z
M 947 1747 
Q 947 1113 1208 752 
Q 1469 391 1925 391 
Q 2381 391 2643 752 
Q 2906 1113 2906 1747 
Q 2906 2381 2643 2742 
Q 2381 3103 1925 3103 
Q 1469 3103 1208 2742 
Q 947 2381 947 1747 
z
" transform="scale(0.015625)"/>
      </defs>
      <use xlink:href="#DejaVuSans-47"/>
      <use xlink:href="#DejaVuSans-72" x="77.490234"/>
      <use xlink:href="#DejaVuSans-6f" x="116.353516"/>
      <use xlink:href="#DejaVuSans-75" x="177.535156"/>
      <use xlink:href="#DejaVuSans-6e" x="240.914062"/>
      <use xlink:href="#DejaVuSans-64" x="304.292969"/>
      <use xlink:href="#DejaVuSans-20" x="367.769531"/>
      <use xlink:href="#DejaVuSans-74" x="399.556641"/>
      <use xlink:href="#DejaVuSans-72" x="438.765625"/>
      <use xlink:href="#DejaVuSans-75" x="479.878906"/>
      <use xlink:href="#DejaVuSans-74" x="543.257812"/>
      <use xlink:href="#DejaVuSans-68" x="582.466797"/>
     </g>
    </g>
   </g>
  </g>
 </g>
 <defs>
  <clipPath id="pddb9fa2a35">
   <rect x="108" y="25.92" width="669.6" height="166.32"/>
  </clipPath>
 </defs>
</svg>
