<?xml version="1.0" encoding="UTF-8" standalone="no" ?>
<!DOCTYPE svg PUBLIC "-//W3C//DTD SVG 1.1//EN" "http://www.w3.org/Graphics/SVG/1.1/DTD/svg11.dtd">
<svg xmlns="http://www.w3.org/2000/svg" xmlns:xlink="http://www.w3.org/1999/xlink" version="1.1" width="310" height="102" viewBox="0 0 310 102" xml:space="preserve">
<desc>Created with Fabric.js 3.6.4</desc>
<defs>
</defs>
<g transform="matrix(1 0 0 1 16.49 68.28)"  >
<path style="stroke: rgb(0,0,0); stroke-width: 3; stroke-dasharray: none; stroke-linecap: round; stroke-dashoffset: 0; stroke-linejoin: round; stroke-miterlimit: 10; fill: none; fill-rule: nonzero; opacity: 1;"  transform=" translate(-165.16, -63.83)" d="M 180.15143286434386 92.83631298828125 Q 180.14843286434387 92.83331298828125 179.14908872456567 92.33331298828125 Q 178.14974458478744 91.83331298828125 176.151056305231 89.33331298828125 Q 174.1523680256746 86.83331298828125 171.15433560633997 81.83331298828125 Q 168.15630318700534 76.83331298828125 163.15958248811427 69.83331298828125 Q 158.16286178922323 62.83331298828125 156.1641735096668 59.33331298828125 Q 154.16548523011036 55.83331298828125 152.16679695055393 49.83331298828125 Q 150.16810867099753 43.83331298828125 150.16810867099753 42.33331298828125 Q 150.16810867099753 40.83331298828125 151.16745281077573 38.83331298828125 Q 152.16679695055396 36.83331298828125 152.66646902044306 36.83331298828125 Q 153.16614109033216 36.83331298828125 153.66581316022126 36.33331298828125 Q 154.16548523011036 35.83331298828125 154.66515729999946 35.33331298828125 Q 155.1648293698886 34.83331298828125 155.6645014397777 34.83331298828125 Q 156.1641735096668 34.83331298828125 157.163517649445 35.83331298828125 Q 158.16286178922323 36.83331298828125 159.66187799889053 37.83331298828125 Q 161.16089420855786 38.83331298828125 162.6599104182252 40.83331298828125 Q 164.1589266278925 42.83331298828125 164.6585986977816 43.83331298828125 Q 165.1582707676707 44.83331298828125 165.6579428375598 45.83331298828125 Q 166.1576149074489 46.83331298828125 166.1576149074489 47.83331298828125 Q 166.1576149074489 48.83331298828125 166.1576149074489 49.83331298828125 Q 166.1576149074489 50.83331298828125 166.657286977338 53.33331298828125 Q 167.15695904722713 55.83331298828125 167.65663111711623 58.33331298828125 Q 168.15630318700534 60.83331298828125 168.15630318700534 63.33331298828125 Q 168.15630318700534 65.83331298828125 169.15564732678354 70.33331298828125 Q 170.15499146656177 74.83331298828125 170.15499146656177 76.83331298828125 Q 170.15499146656177 78.83331298828125 170.15499146656177 79.83331298828125 Q 170.15499146656177 80.83331298828125 170.15499146656177 81.33331298828125 Q 170.15499146656177 81.83331298828125 170.15499146656177 82.33331298828125 Q 170.15499146656177 82.83331298828125 171.15433560633997 83.33331298828125 Q 172.15367974611817 83.83331298828125 172.65335181600727 84.33331298828125 L 173.1560238858964 84.83631298828125" stroke-linecap="round" />
</g>
<g transform="matrix(1 0 0 1 78.45 51.89)"  >
<path style="stroke: rgb(0,0,0); stroke-width: 3; stroke-dasharray: none; stroke-linecap: round; stroke-dashoffset: 0; stroke-linejoin: round; stroke-miterlimit: 10; fill: none; fill-rule: nonzero; opacity: 1;"  transform=" translate(-227.12, -47.44)" d="M 178.14974458478744 87.83631298828125 Q 178.14974458478744 87.83331298828125 178.14974458478744 87.33331298828125 Q 178.14974458478744 86.83331298828125 178.14974458478744 86.33331298828125 Q 178.14974458478744 85.83331298828125 178.14974458478744 85.33331298828125 Q 178.14974458478744 84.83331298828125 178.14974458478744 84.33331298828125 Q 178.14974458478744 83.83331298828125 178.14974458478744 83.33331298828125 Q 178.14974458478744 82.83331298828125 178.64941665467654 82.83331298828125 Q 179.14908872456567 82.83331298828125 180.14843286434387 83.83331298828125 Q 181.14777700412208 84.83331298828125 181.14777700412208 85.33331298828125 Q 181.14777700412208 85.83331298828125 181.6474490740112 86.33331298828125 Q 182.1471211439003 86.83331298828125 182.1471211439003 87.33331298828125 Q 182.1471211439003 87.83331298828125 182.6467932137894 87.83331298828125 Q 183.1464652836785 87.83331298828125 183.6461373535676 87.83331298828125 Q 184.1458094234567 87.83331298828125 185.14515356323494 88.33331298828125 Q 186.14449770301314 88.83331298828125 187.64351391268048 88.83331298828125 Q 189.14253012234778 88.83331298828125 190.14187426212598 88.33331298828125 Q 191.14121840190418 87.83331298828125 192.6402346115715 87.33331298828125 Q 194.13925082123882 86.83331298828125 194.63892289112792 86.83331298828125 Q 195.13859496101702 86.83331298828125 195.63826703090615 86.33331298828125 Q 196.13793910079528 85.83331298828125 196.13793910079528 85.33331298828125 Q 196.13793910079528 84.83331298828125 196.63761117068435 84.83331298828125 Q 197.13728324057345 84.83331298828125 197.63695531046255 84.83331298828125 Q 198.13662738035165 84.83331298828125 199.63564359001896 86.83331298828125 Q 201.1346597996863 88.83331298828125 202.63367600935362 90.33331298828125 Q 204.13269221902092 91.83331298828125 206.13138049857736 93.83331298828125 Q 208.13006877813382 95.83331298828125 208.6297408480229 96.33331298828125 Q 209.129412917912 96.83331298828125 209.6290849878011 96.83331298828125 Q 210.1287570576902 96.83331298828125 209.6290849878011 94.83331298828125 Q 209.129412917912 92.83331298828125 208.6297408480229 90.83331298828125 Q 208.13006877813382 88.83331298828125 206.13138049857736 85.83331298828125 Q 204.13269221902092 82.83331298828125 203.13334807924275 81.33331298828125 Q 202.13400393946455 79.83331298828125 201.13465979968632 78.33331298828125 Q 200.1353156599081 76.83331298828125 199.13597152012989 76.83331298828125 Q 198.13662738035165 76.83331298828125 197.63695531046255 76.33331298828125 Q 197.13728324057345 75.83331298828125 197.63695531046255 76.33331298828125 Q 198.13662738035165 76.83331298828125 200.1353156599081 77.83331298828125 Q 202.13400393946455 78.83331298828125 204.13269221902095 80.33331298828125 Q 206.13138049857736 81.83331298828125 207.1307246383556 82.33331298828125 Q 208.13006877813382 82.83331298828125 210.12875705769022 82.83331298828125 Q 212.12744533724663 82.83331298828125 213.12678947702486 82.83331298828125 Q 214.1261336168031 82.83331298828125 215.1254777565813 82.83331298828125 Q 216.12482189635946 82.83331298828125 218.1235101759159 81.83331298828125 Q 220.12219845547236 80.83331298828125 221.12154259525056 80.83331298828125 Q 222.12088673502873 80.83331298828125 222.62055880491783 80.83331298828125 Q 223.12023087480696 80.83331298828125 223.61990294469607 80.83331298828125 Q 224.11957501458517 80.83331298828125 225.11891915436337 79.83331298828125 Q 226.1182632941416 78.83331298828125 227.1176074339198 77.33331298828125 Q 228.116951573698 75.83331298828125 229.11629571347623 74.33331298828125 Q 230.11563985325444 72.83331298828125 231.11498399303264 70.83331298828125 Q 232.11432813281087 68.83331298828125 232.11432813281087 66.83331298828125 Q 232.11432813281087 64.83331298828125 232.11432813281087 62.33331298828125 Q 232.11432813281087 59.83331298828125 231.11498399303264 55.33331298828125 Q 230.11563985325444 50.83331298828125 228.6166236435871 44.33331298828125 Q 227.1176074339198 37.83331298828125 225.11891915436337 30.33331298828125 Q 223.12023087480696 22.83331298828125 221.62121466513966 17.83331298828125 Q 220.12219845547236 12.83331298828125 218.62318224580503 8.83331298828125 Q 217.12416603613772 4.83331298828125 216.1248218963595 2.83331298828125 Q 215.12547775658126 0.83331298828125 214.62580568669216 0.33331298828125 Q 214.1261336168031 -0.16668701171875 213.62646154691396 -0.66668701171875 Q 213.12678947702483 -1.16668701171875 213.12678947702483 -1.66668701171875 Q 213.12678947702483 -2.16668701171875 212.62711740713573 -2.66668701171875 Q 212.12744533724663 -3.16668701171875 211.62777326735755 -1.16668701171875 Q 211.12810119746845 0.83331298828125 211.12810119746845 6.33331298828125 Q 211.12810119746845 11.83331298828125 216.1248218963595 33.33331298828125 Q 221.12154259525053 54.83331298828125 223.61990294469607 60.83331298828125 Q 226.1182632941416 66.83331298828125 228.6166236435871 72.33331298828125 Q 231.11498399303264 77.83331298828125 231.61465606292177 79.83331298828125 Q 232.11432813281087 81.83331298828125 232.11432813281087 82.33331298828125 Q 232.11432813281087 82.83331298828125 232.61400020269997 82.83331298828125 Q 233.11367227258907 82.83331298828125 233.61334434247817 82.83331298828125 Q 234.11301641236727 82.83331298828125 235.1123605521455 82.83331298828125 Q 236.1117046919237 82.83331298828125 237.1110488317019 82.33331298828125 Q 238.11039297148014 81.83331298828125 239.10973711125834 80.83331298828125 Q 240.10908125103654 79.83331298828125 240.10908125103654 78.83331298828125 Q 240.10908125103654 77.83331298828125 240.10908125103654 77.33331298828125 Q 240.10908125103654 76.83331298828125 240.60875332092564 75.83331298828125 Q 241.10842539081477 74.83331298828125 241.60809746070387 74.83331298828125 Q 242.10776953059298 74.83331298828125 242.10776953059298 75.83331298828125 Q 242.10776953059298 76.83331298828125 243.10711367037118 79.33331298828125 Q 244.1064578101494 81.83331298828125 245.1058019499276 85.33331298828125 Q 246.1051460897058 88.83331298828125 247.60416229937312 91.33331298828125 Q 249.10317850904045 93.83331298828125 250.60219471870778 95.33331298828125 Q 252.10121092837508 96.83331298828125 253.1005550681533 97.33331298828125 Q 254.09989920793151 97.83331298828125 254.59957127782062 97.83331298828125 Q 255.09924334770972 97.83331298828125 256.098587487488 96.33331298828125 Q 257.0979316272662 94.83331298828125 257.59760369715525 93.33331298828125 Q 258.0972757670443 91.83331298828125 258.0972757670443 89.33331298828125 Q 258.0972757670443 86.83331298828125 258.0972757670443 85.83331298828125 Q 258.0972757670443 84.83331298828125 256.598259557377 83.83331298828125 Q 255.09924334770972 82.83331298828125 254.09989920793151 82.33331298828125 Q 253.1005550681533 81.83331298828125 252.60088299826418 81.83331298828125 Q 252.10121092837508 81.83331298828125 251.60153885848598 81.83331298828125 Q 251.10186678859688 81.83331298828125 251.60153885848598 81.83331298828125 Q 252.10121092837508 81.83331298828125 252.60088299826418 81.83331298828125 Q 253.1005550681533 81.83331298828125 253.6002271380424 82.33331298828125 Q 254.09989920793151 82.83331298828125 258.5969478369335 82.83331298828125 Q 263.09399646593545 82.83331298828125 264.5930126756027 82.83331298828125 Q 266.09202888527005 82.83331298828125 268.09071716482646 82.83331298828125 Q 270.08940544438286 82.83331298828125 271.08874958416106 81.83331298828125 Q 272.0880937239393 80.83331298828125 273.0874378637176 80.33331298828125 Q 274.0867820034958 79.83331298828125 275.086126143274 79.33331298828125 L 276.0884702830521 78.83031298828125" stroke-linecap="round" />
</g>
<g transform="matrix(1 0 0 1 180.38 63.62)"  >
<path style="stroke: rgb(0,0,0); stroke-width: 3; stroke-dasharray: none; stroke-linecap: round; stroke-dashoffset: 0; stroke-linejoin: round; stroke-miterlimit: 10; fill: none; fill-rule: nonzero; opacity: 1;"  transform=" translate(-329.05, -59.18)" d="M 305.0634503366203 33.83031298828125 Q 305.0664503366203 33.83331298828125 305.5661224065094 34.33331298828125 Q 306.0657944763985 34.83331298828125 307.0651386161767 35.83331298828125 Q 308.06448275595494 36.83331298828125 309.5634989656222 39.83331298828125 Q 311.06251517528955 42.83331298828125 313.56087552473514 46.83331298828125 Q 316.0592358741807 50.83331298828125 319.0572682935153 55.33331298828125 Q 322.0553007128499 59.83331298828125 325.05333313218455 65.33331298828125 Q 328.05136555151915 70.83331298828125 332.54841418052115 77.83331298828125 Q 337.0454628095231 84.83331298828125 337.5451348794122 84.33331298828125 Q 338.0448069493013 83.83331298828125 338.0448069493013 82.33331298828125 Q 338.0448069493013 80.83331298828125 339.0441510890795 78.83331298828125 Q 340.0434952288577 76.83331298828125 340.54316729874677 75.83331298828125 Q 341.0428393686359 74.83331298828125 341.0428393686359 73.83331298828125 Q 341.0428393686359 72.83331298828125 341.542511438525 72.33331298828125 Q 342.0421835084141 71.83331298828125 342.0421835084141 71.33331298828125 Q 342.0421835084141 70.83331298828125 342.0421835084141 70.33331298828125 Q 342.0421835084141 69.83331298828125 342.0421835084141 69.33331298828125 Q 342.0421835084141 68.83331298828125 342.5418555783032 68.83331298828125 Q 343.04152764819236 68.83331298828125 343.54119971808143 67.83331298828125 Q 344.04087178797056 66.83331298828125 344.04087178797056 65.83331298828125 Q 344.04087178797056 64.83331298828125 344.04087178797056 64.33331298828125 Q 344.04087178797056 63.83331298828125 344.5405438578597 63.33331298828125 Q 345.04021592774876 62.83331298828125 345.53988799763783 62.33331298828125 Q 346.03956006752696 61.83331298828125 346.03956006752696 61.33331298828125 Q 346.03956006752696 60.83331298828125 346.03956006752696 60.33331298828125 Q 346.03956006752696 59.83331298828125 346.5392321374161 59.33331298828125 Q 347.03890420730517 58.83331298828125 347.53857627719424 56.83331298828125 Q 348.03824834708337 54.83331298828125 348.5379204169725 53.83331298828125 Q 349.0375924868616 52.83331298828125 349.53726455675076 49.83331298828125 Q 350.03693662663983 46.83331298828125 350.5366086965289 44.83331298828125 Q 351.03628076641803 42.83331298828125 352.03562490619623 40.83331298828125 Q 353.03496904597444 38.83331298828125 353.03496904597444 37.33331298828125 Q 353.03496904597444 35.83331298828125 353.03496904597444 35.33331298828125 L 353.03496904597444 34.83031298828125" stroke-linecap="round" />
</g>
<g transform="matrix(1 0 0 1 250.34 69.86)"  >
<path style="stroke: rgb(0,0,0); stroke-width: 3; stroke-dasharray: none; stroke-linecap: round; stroke-dashoffset: 0; stroke-linejoin: round; stroke-miterlimit: 10; fill: none; fill-rule: nonzero; opacity: 1;"  transform=" translate(-399, -65.42)" d="M 339.0411510890795 77.83031298828125 Q 339.0441510890795 77.83331298828125 339.5438231589686 78.33331298828125 Q 340.0434952288577 78.83331298828125 342.04218350841415 79.33331298828125 Q 344.04087178797056 79.83331298828125 345.53988799763783 80.33331298828125 Q 347.03890420730517 80.83331298828125 349.5372645567507 80.83331298828125 Q 352.03562490619623 80.83331298828125 353.03496904597444 80.33331298828125 Q 354.03431318575264 79.83331298828125 355.03365732553084 79.33331298828125 Q 356.0330014653091 78.83331298828125 358.53136181475463 76.33331298828125 Q 361.02972216420017 73.83331298828125 361.5293942340893 72.83331298828125 Q 362.02906630397837 71.83331298828125 362.02906630397837 71.33331298828125 Q 362.02906630397837 70.83331298828125 362.52873837386744 70.33331298828125 Q 363.02841044375657 69.83331298828125 363.5280825136457 69.83331298828125 Q 364.0277545835348 69.83331298828125 364.0277545835348 69.33331298828125 Q 364.0277545835348 68.83331298828125 364.0277545835348 69.33331298828125 Q 364.0277545835348 69.83331298828125 364.0277545835348 70.33331298828125 Q 364.0277545835348 70.83331298828125 364.0277545835348 71.33331298828125 Q 364.0277545835348 71.83331298828125 364.0277545835348 72.33331298828125 Q 364.0277545835348 72.83331298828125 364.0277545835348 73.33331298828125 Q 364.0277545835348 73.83331298828125 364.0277545835348 74.33331298828125 Q 364.0277545835348 74.83331298828125 364.52742665342384 74.83331298828125 Q 365.027098723313 74.83331298828125 365.5267707932021 74.83331298828125 Q 366.0264428630912 74.83331298828125 369.0244752824258 75.33331298828125 Q 372.02250770176045 75.83331298828125 373.5215239114278 75.33331298828125 Q 375.0205401210951 74.83331298828125 378.0185725404298 73.83331298828125 Q 381.0166049597644 72.83331298828125 382.0159490995426 71.33331298828125 Q 383.0152932393208 69.83331298828125 385.5136535887663 66.33331298828125 Q 388.01201393821185 62.83331298828125 388.5116860081009 61.83331298828125 Q 389.01135807799005 60.83331298828125 389.5110301478792 59.83331298828125 Q 390.0107022177683 58.83331298828125 390.0107022177683 57.83331298828125 Q 390.0107022177683 56.83331298828125 390.0107022177683 54.83331298828125 Q 390.0107022177683 52.83331298828125 389.01135807799005 51.83331298828125 Q 388.01201393821185 50.83331298828125 387.01266979843365 48.83331298828125 Q 386.01332565865545 46.83331298828125 386.01332565865545 45.83331298828125 Q 386.01332565865545 44.83331298828125 386.01332565865545 44.33331298828125 Q 386.01332565865545 43.83331298828125 386.01332565865545 44.83331298828125 Q 386.01332565865545 45.83331298828125 386.01332565865545 48.33331298828125 Q 386.01332565865545 50.83331298828125 386.01332565865545 53.83331298828125 Q 386.01332565865545 56.83331298828125 388.0120139382119 66.83331298828125 Q 390.0107022177683 76.83331298828125 390.0107022177683 79.83331298828125 Q 390.0107022177683 82.83331298828125 390.5103742876574 84.33331298828125 Q 391.01004635754646 85.83331298828125 391.01004635754646 86.33331298828125 Q 391.01004635754646 86.83331298828125 391.5097184274356 86.83331298828125 Q 392.0093904973247 86.83331298828125 393.0087346371029 85.83331298828125 Q 394.0080787768811 84.83331298828125 395.0074229166594 83.33331298828125 Q 396.0067670564376 81.83331298828125 398.50512740588306 76.33331298828125 Q 401.0034877553286 70.83331298828125 402.5025039649959 64.83331298828125 Q 404.00152017466326 58.83331298828125 405.00086431444146 55.83331298828125 Q 406.00020845421966 52.83331298828125 406.4998805241088 49.83331298828125 Q 406.99955259399786 46.83331298828125 406.99955259399786 46.33331298828125 Q 406.99955259399786 45.83331298828125 406.99955259399786 45.33331298828125 Q 406.99955259399786 44.83331298828125 406.99955259399786 45.83331298828125 Q 406.99955259399786 46.83331298828125 406.99955259399786 47.83331298828125 Q 406.99955259399786 48.83331298828125 406.4998805241088 54.33331298828125 Q 406.00020845421966 59.83331298828125 405.50053638433053 63.33331298828125 Q 405.00086431444146 66.83331298828125 404.5011922445524 69.83331298828125 Q 404.00152017466326 72.83331298828125 404.00152017466326 73.83331298828125 Q 404.00152017466326 74.83331298828125 404.00152017466326 75.33331298828125 Q 404.00152017466326 75.83331298828125 404.00152017466326 76.33331298828125 Q 404.00152017466326 76.83331298828125 404.5011922445524 76.83331298828125 Q 405.00086431444146 76.83331298828125 405.50053638433053 76.83331298828125 Q 406.00020845421966 76.83331298828125 406.9995525939979 76.83331298828125 Q 407.9988967337761 76.83331298828125 408.9982408735543 76.83331298828125 Q 409.9975850133325 76.83331298828125 410.9969291531107 76.33331298828125 Q 411.99627329288893 75.83331298828125 412.99561743266713 74.83331298828125 Q 413.9949615724454 73.83331298828125 414.49463364233446 73.83331298828125 Q 414.99430571222354 73.83331298828125 415.49397778211267 73.33331298828125 Q 415.9936498520018 72.83331298828125 415.9936498520018 72.33331298828125 Q 415.9936498520018 71.83331298828125 415.9936498520018 72.33331298828125 Q 415.9936498520018 72.83331298828125 415.9936498520018 73.33331298828125 Q 415.9936498520018 73.83331298828125 415.9936498520018 75.33331298828125 Q 415.9936498520018 76.83331298828125 415.9936498520018 77.33331298828125 Q 415.9936498520018 77.83331298828125 415.49397778211267 78.33331298828125 Q 414.99430571222354 78.83331298828125 414.99430571222354 79.33331298828125 Q 414.99430571222354 79.83331298828125 415.49397778211267 79.83331298828125 Q 415.9936498520018 79.83331298828125 416.99299399177994 79.33331298828125 Q 417.99233813155814 78.83331298828125 420.99037055089275 77.33331298828125 Q 423.9884029702274 75.83331298828125 424.98774711000567 74.83331298828125 Q 425.98709124978393 73.83331298828125 426.98643538956213 73.33331298828125 Q 427.98577952934033 72.83331298828125 427.98577952934033 72.33331298828125 Q 427.98577952934033 71.83331298828125 428.48545159922946 71.83331298828125 Q 428.98512366911854 71.83331298828125 429.4847957390076 72.33331298828125 Q 429.9844678088967 72.83331298828125 430.98381194867494 72.83331298828125 Q 431.9831560884532 72.83331298828125 431.9831560884532 73.33331298828125 Q 431.9831560884532 73.83331298828125 432.4828281583423 74.33331298828125 Q 432.98250022823134 74.83331298828125 433.4821722981205 74.83331298828125 Q 433.9818443680096 74.83331298828125 434.4815164378987 74.83331298828125 Q 434.9811885077878 74.83331298828125 435.4808605776769 74.83331298828125 Q 435.98053264756595 74.83331298828125 436.4802047174551 74.83331298828125 Q 436.9798767873442 74.83331298828125 437.47954885723334 74.33331298828125 Q 437.97922092712247 73.83331298828125 439.47823713678974 72.83331298828125 Q 440.9772533464571 71.83331298828125 442.4762695561244 71.33331298828125 Q 443.97528576579174 70.83331298828125 446.4736461152372 71.33331298828125 Q 448.97200646468275 71.83331298828125 450.4710226743501 72.83331298828125 Q 451.9700388840174 73.83331298828125 453.4690550936847 75.83331298828125 Q 454.968071303352 77.83331298828125 455.9674154431302 79.33331298828125 Q 456.9667595829084 80.83331298828125 457.9661037226866 81.83331298828125 L 458.96844786246487 82.83631298828125" stroke-linecap="round" />
</g>
<g transform="matrix(1 0 0 1 301.3 52.27)"  >
<path style="stroke: rgb(0,0,0); stroke-width: 3; stroke-dasharray: none; stroke-linecap: round; stroke-dashoffset: 0; stroke-linejoin: round; stroke-miterlimit: 10; fill: none; fill-rule: nonzero; opacity: 1;"  transform=" translate(-449.97, -47.83)" d="M 449.968350604461 47.83331298828125 L 449.974350604461 47.83331298828125" stroke-linecap="round" />
</g>
</svg>